<svg xmlns="http://www.w3.org/2000/svg" xmlns:xlink="http://www.w3.org/1999/xlink" width="174" height="174" viewBox="0 0 174 174">
  <defs>
    <clipPath id="clip-path">
      <rect id="Ret창ngulo_9881" data-name="Ret창ngulo 9881" width="125.306" height="152.789" fill="none"/>
    </clipPath>
  </defs>
  <g id="img_backup" transform="translate(-236 -407)">
    <rect id="Ret창ngulo_9879" data-name="Ret창ngulo 9879" width="174" height="174" transform="translate(236 407)" fill="#fff" opacity="0"/>
    <g id="Grupo_2557" data-name="Grupo 2557" transform="translate(260.347 417.605)">
      <path id="Caminho_2209" data-name="Caminho 2209" d="M80.593,177.9H54.366l-8.89,47.119H89.484Z" transform="translate(-22.465 -87.883)" fill="#08162b"/>
      <g id="Grupo_2556" data-name="Grupo 2556">
        <g id="Grupo_2555" data-name="Grupo 2555" clip-path="url(#clip-path)">
          <path id="Caminho_2210" data-name="Caminho 2210" d="M206.087,40.943a1.332,1.332,0,0,1-1.327-1.486A32.987,32.987,0,0,0,168.174,2.891a1.334,1.334,0,1,1-.307-2.649,35.654,35.654,0,0,1,39.543,39.52,1.334,1.334,0,0,1-1.323,1.181" transform="translate(-82.343 0)" fill="#6bba21"/>
          <path id="Caminho_2211" data-name="Caminho 2211" d="M183.915,62.182a1.335,1.335,0,0,1-1.267-1.752A11.227,11.227,0,0,0,168.44,46.244a1.334,1.334,0,0,1-.841-2.531,13.895,13.895,0,0,1,17.582,17.554,1.335,1.335,0,0,1-1.267.915" transform="translate(-82.342 -21.239)" fill="#6bba21"/>
          <path id="Caminho_2212" data-name="Caminho 2212" d="M194,52.626a1.336,1.336,0,0,1-1.315-1.569,21.022,21.022,0,0,0-24.431-24.41,1.334,1.334,0,1,1-.471-2.625,23.689,23.689,0,0,1,27.528,27.5,1.334,1.334,0,0,1-1.311,1.1" transform="translate(-82.343 -11.682)" fill="#6bba21"/>
          <path id="Caminho_2213" data-name="Caminho 2213" d="M56.612,87.584l.657,3.108,51-10.769L78.137,110.055l2.247,2.247,29.987-29.987L99.653,133.077l3.109.657,12.354-58.5Z" transform="translate(-27.966 -37.164)" fill="#2a3a4d"/>
          <path id="Caminho_2214" data-name="Caminho 2214" d="M31.2,36.526A65.157,65.157,0,0,0,118.767,124.1,578.817,578.817,0,0,0,77.229,78.065,578.818,578.818,0,0,0,31.2,36.526" transform="translate(-11.94 -18.044)" fill="#e4e8f0"/>
          <path id="Caminho_2215" data-name="Caminho 2215" d="M46.558,108.736a67.693,67.693,0,0,1-15.32-72.17l-.04-.04a65.156,65.156,0,0,0,87.57,87.57l-.04-.04a67.693,67.693,0,0,1-72.17-15.32" transform="translate(-11.94 -18.044)" fill="#cfdae6"/>
          <path id="Caminho_2216" data-name="Caminho 2216" d="M166.5,66.41a7.546,7.546,0,1,1-10.672,0,7.546,7.546,0,0,1,10.672,0" transform="translate(-75.887 -31.715)" fill="#08162b"/>
          <path id="Caminho_2217" data-name="Caminho 2217" d="M168.246,66.41a7.546,7.546,0,0,0-10.672,0c-.15.15-.287.308-.423.467A7.541,7.541,0,0,1,167.779,77.5c.159-.135.317-.272.467-.423a7.546,7.546,0,0,0,0-10.672" transform="translate(-77.632 -31.715)" fill="#102a52"/>
          <path id="Caminho_2218" data-name="Caminho 2218" d="M156.717,77.939a7.543,7.543,0,0,1-.422-10.206c-.159.135-.317.272-.467.423A7.546,7.546,0,0,0,166.5,78.828c.15-.15.287-.308.423-.467a7.543,7.543,0,0,1-10.206-.422" transform="translate(-75.887 -33.46)" fill="#08121c"/>
          <path id="Caminho_2219" data-name="Caminho 2219" d="M61.055,190.091A64.811,64.811,0,0,0,92.766,207.57l-.878-4.654a64.8,64.8,0,0,1-30.833-17.27c-.045-.045-.087-.09-.131-.134l-.7,3.724c.276.286.551.573.833.856" transform="translate(-29.75 -91.642)" fill="#08121c"/>
          <path id="Caminho_2220" data-name="Caminho 2220" d="M2.963,295.73h89.1c1.636,0,2.962-.64,2.962-1.429s-1.326-1.428-2.962-1.428H83.072c-.777,0-1.406-.3-1.406-.679v-.268c0-.374.629-.678,1.406-.678h2.479c.777,0,1.406-.3,1.406-.679v-.536c0-.374-.629-.678-1.406-.678H4.256c-.777,0-1.406.3-1.406.678v.536c0,.374.629.679,1.406.679s1.406.3,1.406.678v.268c0,.374-.629.679-1.406.679H2.963c-1.636,0-2.963.64-2.963,1.428s1.327,1.429,2.963,1.429" transform="translate(0 -142.941)" fill="#e4e8f0"/>
          <path id="Caminho_2221" data-name="Caminho 2221" d="M90.234,283.479H20V273.143a3,3,0,0,1,3-3H87.234a3,3,0,0,1,3,3Z" transform="translate(-9.88 -133.45)" fill="#2a3a4d"/>
        </g>
      </g>
    </g>
  </g>
</svg>
