<svg xmlns="http://www.w3.org/2000/svg" xmlns:xlink="http://www.w3.org/1999/xlink" width="174" height="174" viewBox="0 0 174 174">
  <defs>
    <clipPath id="clip-path">
      <rect id="Retângulo_10505" data-name="Retângulo 10505" width="121.959" height="155.099" fill="none"/>
    </clipPath>
    <clipPath id="clip-path-3">
      <rect id="Retângulo_10503" data-name="Retângulo 10503" width="73.143" height="11.699" fill="none"/>
    </clipPath>
  </defs>
  <g id="img_instâncias" transform="translate(-235.787 -407)">
    <rect id="Retângulo_9879" data-name="Retângulo 9879" width="174" height="174" transform="translate(235.787 407)" fill="#fff" opacity="0"/>
    <g id="Grupo_4113" data-name="Grupo 4113" transform="translate(261.808 418.562)">
      <g id="Grupo_4112" data-name="Grupo 4112" clip-path="url(#clip-path)">
        <path id="Caminho_9974" data-name="Caminho 9974" d="M179.9,67.741V59.28l-6.24,1.273-1.775-4.421-6.137.83-4.2-1.049-1.574-3.148-5.247,1.049L153.053,54.9,150,52.239l-1.878-1.945h-8.033l-5.613,5.687,1.355,10.426Z" transform="translate(-63.912 -23.903)" fill="#08121c"/>
        <path id="Caminho_9975" data-name="Caminho 9975" d="M180.9,57.1l-4.565.913-5.247-1.049-1.574-3.673-5.247,1.049-2.1,1.049-5.248-4.16h-1.762l-.6-.933h3.108l4.928,4.6,1.672-1.084,5.247-1.049,1.574,3.148,4.2,1.049,6.137-.83,1.775,4.421,6.24-1.273.016.83-6.3,1.049Z" transform="translate(-73.456 -23.903)" fill="#102a52"/>
        <g id="Grupo_4111" data-name="Grupo 4111">
          <g id="Grupo_4110" data-name="Grupo 4110" clip-path="url(#clip-path)">
            <path id="Caminho_9976" data-name="Caminho 9976" d="M117.425,77.339c0,4.927-25.608,8.921-57.2,8.921s-57.2-3.994-57.2-8.921,25.608-8.921,57.2-8.921,57.2,3.994,57.2,8.921" transform="translate(-1.441 -32.516)" fill="#02060a"/>
            <path id="Caminho_9977" data-name="Caminho 9977" d="M117.575,264.486c0,6.106-26.32,11.056-58.788,11.056S0,270.593,0,264.486,26.32,253.43,58.788,253.43s58.788,4.95,58.788,11.056" transform="translate(0 -120.444)" fill="#e4e8f0"/>
            <path id="Caminho_9978" data-name="Caminho 9978" d="M116.837,256.183c0,4.389-22.814,7.947-50.957,7.947s-50.957-3.558-50.957-7.947V238.418H116.837Z" transform="translate(-7.092 -113.31)" fill="#08121c"/>
            <path id="Caminho_9979" data-name="Caminho 9979" d="M117.425,238.358c0,4.927-25.608,8.921-57.2,8.921s-57.2-3.994-57.2-8.921v-19.94H117.425Z" transform="translate(-1.441 -103.804)" fill="#08162b"/>
            <path id="Caminho_9980" data-name="Caminho 9980" d="M117.425,210.339c0,4.927-25.608,8.921-57.2,8.921s-57.2-3.994-57.2-8.921,25.608-8.921,57.2-8.921,57.2,3.994,57.2,8.921" transform="translate(-1.441 -95.725)" fill="#102a52"/>
            <path id="Caminho_9981" data-name="Caminho 9981" d="M104.041,255.931h8.06a.579.579,0,0,0,.5-.864l-4.03-7.109a.579.579,0,0,0-1.007,0l-4.03,7.109a.579.579,0,0,0,.5.864" transform="translate(-49.171 -117.704)" fill="#3e5570"/>
            <path id="Caminho_9982" data-name="Caminho 9982" d="M116.837,199.183c0,4.389-22.814,7.947-50.957,7.947s-50.957-3.558-50.957-7.947V181.418H116.837Z" transform="translate(-7.092 -86.22)" fill="#08121c"/>
            <path id="Caminho_9983" data-name="Caminho 9983" d="M117.425,181.358c0,4.927-25.608,8.921-57.2,8.921s-57.2-3.994-57.2-8.921v-19.94H117.425Z" transform="translate(-1.441 -76.715)" fill="#08162b"/>
            <path id="Caminho_9984" data-name="Caminho 9984" d="M117.425,153.339c0,4.927-25.608,8.921-57.2,8.921s-57.2-3.994-57.2-8.921,25.608-8.921,57.2-8.921,57.2,3.994,57.2,8.921" transform="translate(-1.441 -68.636)" fill="#102a52"/>
            <path id="Caminho_9985" data-name="Caminho 9985" d="M116.837,142.183c0,4.389-22.814,7.947-50.957,7.947s-50.957-3.558-50.957-7.947V124.418H116.837Z" transform="translate(-7.092 -59.13)" fill="#08121c"/>
            <path id="Caminho_9986" data-name="Caminho 9986" d="M117.425,124.358c0,4.927-25.608,8.921-57.2,8.921s-57.2-3.994-57.2-8.921v-19.94H117.425Z" transform="translate(-1.441 -49.625)" fill="#08162b"/>
            <path id="Caminho_9987" data-name="Caminho 9987" d="M117.425,96.339c0,4.927-25.608,8.921-57.2,8.921s-57.2-3.994-57.2-8.921,25.608-8.921,57.2-8.921,57.2,3.994,57.2,8.921" transform="translate(-1.441 -41.546)" fill="#102a52"/>
            <path id="Caminho_9988" data-name="Caminho 9988" d="M114.451,77.913s-4.477-2.843-5-2.843-7.346-2.222-7.346-2.222l-3.792-4.075H92.133l-3.387-1.355H14.922V85.183c0,4.389,22.814,7.947,50.957,7.947s50.957-3.558,50.957-7.947v-6.91Z" transform="translate(-7.092 -32.041)" fill="#08121c"/>
            <path id="Caminho_9989" data-name="Caminho 9989" d="M180.645,14.734l1.772-2.87.267.2-1.591,2.577,2.254-1.91.187.289-2.487,2.108-.13-.2,0,.007Z" transform="translate(-85.852 -5.638)" fill="#a3b7cc"/>
            <path id="Caminho_9990" data-name="Caminho 9990" d="M179.03,54.448l1.054-.959c-3.23-4.585-5.746-9.4-5.384-10.3a75.841,75.841,0,0,1,4.52-7.3.835.835,0,0,0,.139-.587c-.152-1.07-1.535-10.515-3.476-12.619a1.107,1.107,0,0,1-.28-.837c.049-1.558,1.947-3.937,2.675-4.722,0,0-.222-.071-.44-.514s-.44-.514-.44-.514c-.31.334-3.032,3.335-3.11,5.794a2.59,2.59,0,0,0,.648,1.885c1.352,1.464,2.634,8.536,3.077,11.534a69.3,69.3,0,0,0-4.49,7.312c-.972,2.243,3.528,9.02,5.508,11.83" transform="translate(-82.403 -7.648)" fill="#6bba21"/>
            <path id="Caminho_9991" data-name="Caminho 9991" d="M180.642,53.4c-3.23-4.585-5.746-9.4-5.384-10.3a75.81,75.81,0,0,1,4.521-7.3.839.839,0,0,0,.139-.587c-.152-1.07-1.535-10.515-3.476-12.619a1.106,1.106,0,0,1-.28-.837c.049-1.558,1.947-3.937,2.675-4.722,0,0-.223-.071-.44-.514a1.543,1.543,0,0,0-.214-.333l.089-.1s.222.071.44.515.44.514.44.514c-.727.784-2.626,3.164-2.675,4.722a1.108,1.108,0,0,0,.28.837c1.942,2.1,3.325,11.549,3.476,12.619a.84.84,0,0,1-.139.587,75.924,75.924,0,0,0-4.521,7.3c-.362.9,2.155,5.716,5.384,10.3l-1.053.959-.159-.227Z" transform="translate(-83.276 -7.648)" fill="#5da11b"/>
            <path id="Caminho_9992" data-name="Caminho 9992" d="M225.619,35.754a.415.415,0,1,1,.524.265.416.416,0,0,1-.524-.265m-.226.074A.652.652,0,1,0,225.81,35a.653.653,0,0,0-.417.823" transform="translate(-107.104 -16.621)" fill="#f2ad18"/>
            <path id="Caminho_9993" data-name="Caminho 9993" d="M227.455,38.649l.518,1.578a.119.119,0,1,1-.226.074l-.518-1.578a.119.119,0,0,1,.226-.074" transform="translate(-107.989 -18.329)" fill="#f2ad18"/>
            <path id="Caminho_9994" data-name="Caminho 9994" d="M230.765,34.238a.119.119,0,0,1-.076.15l-1.578.518a.118.118,0,0,1-.074-.225l1.578-.518a.118.118,0,0,1,.15.076" transform="translate(-108.813 -16.233)" fill="#f2ad18"/>
            <path id="Caminho_9995" data-name="Caminho 9995" d="M224.777,30.486l.518,1.578a.119.119,0,1,1-.226.074l-.518-1.578a.119.119,0,0,1,.226-.074" transform="translate(-106.717 -14.45)" fill="#f2ad18"/>
            <path id="Caminho_9996" data-name="Caminho 9996" d="M222.6,36.917a.119.119,0,0,1-.076.15l-1.578.518a.118.118,0,1,1-.074-.225l1.578-.518a.118.118,0,0,1,.15.076" transform="translate(-104.933 -17.506)" fill="#f2ad18"/>
            <path id="Caminho_9997" data-name="Caminho 9997" d="M229.981,37.85a.06.06,0,0,1-.083.071l-.953-.482a.059.059,0,0,1,.054-.106l.953.482a.064.064,0,0,1,.03.035" transform="translate(-108.792 -17.74)" fill="#f2ad18"/>
            <path id="Caminho_9998" data-name="Caminho 9998" d="M228.314,31.907a.057.057,0,0,1,0,.045l-.482.953a.059.059,0,0,1-.106-.054l.482-.953a.059.059,0,0,1,.08-.026.061.061,0,0,1,.029.035" transform="translate(-108.223 -15.144)" fill="#f2ad18"/>
            <path id="Caminho_9999" data-name="Caminho 9999" d="M223.323,34.483a.057.057,0,0,1,0,.045.059.059,0,0,1-.079.026l-.953-.482a.059.059,0,0,1,.054-.106l.953.482a.061.061,0,0,1,.029.035" transform="translate(-105.628 -16.14)" fill="#f2ad18"/>
            <path id="Caminho_10000" data-name="Caminho 10000" d="M224.946,38.564a.057.057,0,0,1,0,.045l-.482.953a.059.059,0,0,1-.106-.054l.482-.953a.059.059,0,0,1,.08-.026.061.061,0,0,1,.029.035" transform="translate(-106.623 -18.308)" fill="#f2ad18"/>
            <path id="Caminho_10001" data-name="Caminho 10001" d="M181.362,3.312a.262.262,0,1,1,.353-.114.262.262,0,0,1-.353.114m-.068.134a.412.412,0,1,0-.179-.555.412.412,0,0,0,.179.555" transform="translate(-86.054 -1.267)" fill="#f2ad18"/>
            <path id="Caminho_10002" data-name="Caminho 10002" d="M183.347,4.1l.935.478a.075.075,0,0,1-.068.133l-.935-.477a.075.075,0,0,1,.068-.134" transform="translate(-87.085 -1.943)" fill="#f2ad18"/>
            <path id="Caminho_10003" data-name="Caminho 10003" d="M183.078.009a.075.075,0,0,1,.033.1l-.477.935A.075.075,0,0,1,182.5.976l.478-.935a.075.075,0,0,1,.1-.033" transform="translate(-86.73 0)" fill="#f2ad18"/>
            <path id="Caminho_10004" data-name="Caminho 10004" d="M178.512,1.628l.935.478a.075.075,0,0,1-.069.133l-.935-.477a.075.075,0,0,1,.069-.134" transform="translate(-84.787 -0.77)" fill="#f2ad18"/>
            <path id="Caminho_10005" data-name="Caminho 10005" d="M180.608,4.844a.075.075,0,0,1,.033.1l-.477.935a.075.075,0,0,1-.134-.068l.478-.935a.075.075,0,0,1,.1-.033" transform="translate(-85.556 -2.298)" fill="#f2ad18"/>
            <path id="Caminho_10006" data-name="Caminho 10006" d="M184.11,2.459a.037.037,0,0,1,.018.022.037.037,0,0,1-.024.047l-.642.208a.038.038,0,0,1-.023-.071l.642-.208a.039.039,0,0,1,.029,0" transform="translate(-87.168 -1.167)" fill="#f2ad18"/>
            <path id="Caminho_10007" data-name="Caminho 10007" d="M180.913.529a.037.037,0,0,1,.018.022l.208.642a.038.038,0,0,1-.024.047.037.037,0,0,1-.047-.024L180.86.575a.037.037,0,0,1,.024-.047.039.039,0,0,1,.029,0" transform="translate(-85.954 -0.25)" fill="#f2ad18"/>
            <path id="Caminho_10008" data-name="Caminho 10008" d="M179.624,3.912a.037.037,0,0,1,.018.022.037.037,0,0,1-.024.047l-.642.208a.037.037,0,1,1-.023-.071l.642-.208a.039.039,0,0,1,.029,0" transform="translate(-85.036 -1.858)" fill="#f2ad18"/>
            <path id="Caminho_10009" data-name="Caminho 10009" d="M182.366,5.015a.037.037,0,0,1,.018.022l.208.642a.038.038,0,0,1-.024.047.037.037,0,0,1-.047-.024l-.208-.642a.037.037,0,0,1,.024-.047.039.039,0,0,1,.029,0" transform="translate(-86.644 -2.382)" fill="#f2ad18"/>
            <path id="Caminho_10010" data-name="Caminho 10010" d="M190.026,18.421a.262.262,0,1,1,.353-.114.262.262,0,0,1-.353.114m-.068.134a.412.412,0,1,0-.179-.555.412.412,0,0,0,.179.555" transform="translate(-90.171 -8.448)" fill="#f2ad18"/>
            <path id="Caminho_10011" data-name="Caminho 10011" d="M192.012,19.207l.935.478a.075.075,0,0,1-.068.133l-.935-.477a.075.075,0,0,1,.068-.134" transform="translate(-91.203 -9.124)" fill="#f2ad18"/>
            <path id="Caminho_10012" data-name="Caminho 10012" d="M191.742,15.119a.075.075,0,0,1,.033.1l-.477.935a.075.075,0,0,1-.134-.068l.478-.935a.075.075,0,0,1,.1-.033" transform="translate(-90.848 -7.181)" fill="#f2ad18"/>
            <path id="Caminho_10013" data-name="Caminho 10013" d="M187.176,16.738l.935.478a.075.075,0,0,1-.068.133l-.935-.477a.075.075,0,0,1,.068-.134" transform="translate(-88.905 -7.951)" fill="#f2ad18"/>
            <path id="Caminho_10014" data-name="Caminho 10014" d="M189.273,19.954a.075.075,0,0,1,.033.1l-.477.935a.075.075,0,0,1-.134-.068l.477-.935a.075.075,0,0,1,.1-.033" transform="translate(-89.674 -9.479)" fill="#f2ad18"/>
            <path id="Caminho_10015" data-name="Caminho 10015" d="M192.775,17.569a.038.038,0,0,1-.005.069l-.642.208a.038.038,0,0,1-.023-.071l.642-.208a.039.039,0,0,1,.029,0" transform="translate(-91.286 -8.348)" fill="#f2ad18"/>
            <path id="Caminho_10016" data-name="Caminho 10016" d="M189.577,15.639a.037.037,0,0,1,.018.022l.208.642a.038.038,0,0,1-.024.047.037.037,0,0,1-.047-.024l-.208-.642a.037.037,0,0,1,.024-.047.039.039,0,0,1,.029,0" transform="translate(-90.072 -7.431)" fill="#f2ad18"/>
            <path id="Caminho_10017" data-name="Caminho 10017" d="M188.289,19.022a.037.037,0,0,1,.018.022.037.037,0,0,1-.024.047l-.642.208a.038.038,0,1,1-.023-.071l.642-.208a.039.039,0,0,1,.029,0" transform="translate(-89.154 -9.039)" fill="#f2ad18"/>
            <path id="Caminho_10018" data-name="Caminho 10018" d="M191.031,20.125a.037.037,0,0,1,.018.022l.208.642a.038.038,0,0,1-.024.047.037.037,0,0,1-.047-.024l-.208-.642a.037.037,0,0,1,.024-.047.039.039,0,0,1,.029,0" transform="translate(-90.763 -9.563)" fill="#f2ad18"/>
            <path id="Caminho_10019" data-name="Caminho 10019" d="M192.432,6.947a.262.262,0,1,1,.353-.114.262.262,0,0,1-.353.114m-.068.134a.412.412,0,1,0-.179-.555.412.412,0,0,0,.179.555" transform="translate(-91.315 -2.995)" fill="#f2ad18"/>
            <path id="Caminho_10020" data-name="Caminho 10020" d="M194.417,7.733l.935.478a.075.075,0,0,1-.068.133l-.935-.477a.075.075,0,0,1,.068-.134" transform="translate(-92.346 -3.671)" fill="#f2ad18"/>
            <path id="Caminho_10021" data-name="Caminho 10021" d="M194.148,3.644a.075.075,0,0,1,.033.1l-.478.935a.075.075,0,0,1-.133-.068l.478-.935a.075.075,0,0,1,.1-.033" transform="translate(-91.991 -1.728)" fill="#f2ad18"/>
            <path id="Caminho_10022" data-name="Caminho 10022" d="M189.582,5.263l.935.478a.075.075,0,0,1-.068.133l-.935-.477a.075.075,0,0,1,.068-.134" transform="translate(-90.048 -2.497)" fill="#f2ad18"/>
            <path id="Caminho_10023" data-name="Caminho 10023" d="M191.679,8.48a.075.075,0,0,1,.033.1l-.477.935a.075.075,0,0,1-.134-.068l.478-.935a.075.075,0,0,1,.1-.033" transform="translate(-90.818 -4.026)" fill="#f2ad18"/>
            <path id="Caminho_10024" data-name="Caminho 10024" d="M195.18,6.1a.037.037,0,0,1,.018.022.037.037,0,0,1-.024.047l-.642.208a.038.038,0,0,1-.023-.071l.642-.208a.039.039,0,0,1,.029,0" transform="translate(-92.429 -2.895)" fill="#f2ad18"/>
            <path id="Caminho_10025" data-name="Caminho 10025" d="M191.983,4.165a.037.037,0,0,1,.018.022l.208.642a.038.038,0,0,1-.024.047.037.037,0,0,1-.047-.024l-.208-.642a.037.037,0,0,1,.024-.047.039.039,0,0,1,.029,0" transform="translate(-91.215 -1.978)" fill="#f2ad18"/>
            <path id="Caminho_10026" data-name="Caminho 10026" d="M190.7,7.548a.037.037,0,0,1,.018.022.037.037,0,0,1-.024.047l-.642.208a.038.038,0,1,1-.023-.071l.642-.208a.039.039,0,0,1,.029,0" transform="translate(-90.298 -3.586)" fill="#f2ad18"/>
            <path id="Caminho_10027" data-name="Caminho 10027" d="M193.436,8.651a.037.037,0,0,1,.018.022l.208.642a.038.038,0,0,1-.024.047.037.037,0,0,1-.047-.024l-.208-.642a.037.037,0,0,1,.024-.047.039.039,0,0,1,.029,0" transform="translate(-91.906 -4.11)" fill="#f2ad18"/>
            <path id="Caminho_10028" data-name="Caminho 10028" d="M218.9,22.374a.422.422,0,1,1,.568-.184.423.423,0,0,1-.568.184m-.11.215a.663.663,0,1,0-.289-.892.662.662,0,0,0,.289.892" transform="translate(-103.807 -10.139)" fill="#f2ad18"/>
            <path id="Caminho_10029" data-name="Caminho 10029" d="M222.092,23.637l1.5.768a.121.121,0,0,1-.11.215l-1.5-.768a.121.121,0,0,1,.11-.215" transform="translate(-105.467 -11.227)" fill="#f2ad18"/>
            <path id="Caminho_10030" data-name="Caminho 10030" d="M221.658,17.058a.12.12,0,0,1,.052.162l-.768,1.5a.121.121,0,1,1-.215-.11l.768-1.5a.12.12,0,0,1,.162-.052" transform="translate(-104.896 -8.101)" fill="#f2ad18"/>
            <path id="Caminho_10031" data-name="Caminho 10031" d="M214.311,19.664l1.5.768a.121.121,0,0,1-.11.215l-1.5-.768a.121.121,0,0,1,.11-.215" transform="translate(-101.769 -9.339)" fill="#f2ad18"/>
            <path id="Caminho_10032" data-name="Caminho 10032" d="M217.684,24.84a.12.12,0,0,1,.052.162l-.768,1.5a.121.121,0,1,1-.215-.11l.768-1.5a.12.12,0,0,1,.162-.052" transform="translate(-103.007 -11.799)" fill="#f2ad18"/>
            <path id="Caminho_10033" data-name="Caminho 10033" d="M223.32,21a.06.06,0,0,1-.009.111l-1.033.335a.06.06,0,0,1-.037-.115L223.274,21a.061.061,0,0,1,.046,0" transform="translate(-105.601 -9.979)" fill="#f2ad18"/>
            <path id="Caminho_10034" data-name="Caminho 10034" d="M218.174,17.9a.061.061,0,0,1,.03.035l.335,1.033a.06.06,0,1,1-.115.037l-.335-1.033a.06.06,0,0,1,.085-.072" transform="translate(-103.647 -8.503)" fill="#f2ad18"/>
            <path id="Caminho_10035" data-name="Caminho 10035" d="M216.1,23.341a.06.06,0,0,1-.009.111l-1.033.335a.06.06,0,0,1-.037-.115l1.033-.335a.061.061,0,0,1,.046,0" transform="translate(-102.171 -11.09)" fill="#f2ad18"/>
            <path id="Caminho_10036" data-name="Caminho 10036" d="M220.512,25.116a.061.061,0,0,1,.03.035l.335,1.033a.06.06,0,1,1-.115.037l-.335-1.033a.06.06,0,0,1,.085-.072" transform="translate(-104.758 -11.933)" fill="#f2ad18"/>
            <path id="Caminho_10037" data-name="Caminho 10037" d="M115.93,66.941c0,3.561-18.512,6.449-41.349,6.449S33.232,70.5,33.232,66.941V52.526h82.7Z" transform="translate(-15.794 -24.963)" fill="#6b8199"/>
            <path id="Caminho_10038" data-name="Caminho 10038" d="M115.93,46.685c0,3.561-18.512,6.449-41.349,6.449s-41.349-2.888-41.349-6.449,18.512-6.449,41.349-6.449,41.349,2.888,41.349,6.449" transform="translate(-15.794 -19.122)" fill="#a3b7cc"/>
            <path id="Caminho_10039" data-name="Caminho 10039" d="M115.93,48.067c0-.5-.377-.987-1.068-1.454L75.233,48.03,108.3,44.336c-2.014-.442-4.374-.843-7.024-1.193l-26.535,4.9L34.316,46.6c-.7.471-1.084.961-1.084,1.465s.383.994,1.084,1.465L74.243,48.1l-33.27,3.718c2.038.443,4.422.844,7.1,1.194L74.74,48.086l40.122,1.435c.691-.467,1.068-.953,1.068-1.454" transform="translate(-15.794 -20.504)" fill="#cfdae6"/>
            <path id="Caminho_10040" data-name="Caminho 10040" d="M214.568,34.032l-.029-2.995-.326,0,.026,2.689-.929-2.55-.305.112,1.024,2.814.213-.078v.008Z" transform="translate(-101.232 -14.75)" fill="#a3b7cc"/>
            <path id="Caminho_10041" data-name="Caminho 10041" d="M175.88,62.535l-.4-1.239c5.079-1.642,9.672-3.819,9.827-4.659a60.534,60.534,0,0,0-.086-7.626.654.654,0,0,1,.183-.5c.676-.7,6.681-6.81,9.4-7.325a.979.979,0,0,0,.665-.461c.756-1.152.368-3.857.155-4.8a.965.965,0,0,0,.635-.144.967.967,0,0,1,.635-.144c.091.4.857,3.984-.335,5.8a2.289,2.289,0,0,1-1.513,1.027c-1.893.358-6.6,4.808-8.508,6.747a55.206,55.206,0,0,1,.055,7.617c-.326,2.126-7.6,4.7-10.715,5.7" transform="translate(-83.398 -16.933)" fill="#e60c32"/>
            <path id="Caminho_10042" data-name="Caminho 10042" d="M175.79,61.4c5.079-1.642,9.672-3.819,9.827-4.659a60.54,60.54,0,0,0-.086-7.626.653.653,0,0,1,.183-.5c.676-.7,6.681-6.811,9.4-7.325a.978.978,0,0,0,.665-.46c.756-1.152.368-3.857.155-4.8a.965.965,0,0,0,.635-.144,1.476,1.476,0,0,1,.351-.13l-.025-.116a.968.968,0,0,0-.635.144.965.965,0,0,1-.635.144c.214.945.6,3.65-.155,4.8a.976.976,0,0,1-.665.461c-2.719.515-8.724,6.63-9.4,7.325a.651.651,0,0,0-.183.5,60.641,60.641,0,0,1,.086,7.626c-.156.841-4.749,3.018-9.828,4.659l.4,1.24.25-.082Z" transform="translate(-83.398 -16.933)" fill="#fd335f"/>
            <g id="Grupo_4109" data-name="Grupo 4109" transform="translate(13.135 21.919)" opacity="0.58">
              <g id="Grupo_4108" data-name="Grupo 4108">
                <g id="Grupo_4107" data-name="Grupo 4107" clip-path="url(#clip-path-3)">
                  <path id="Caminho_10043" data-name="Caminho 10043" d="M94.838,50.812l.525-1.574,2.811-1.42-2.2-3.548.963-1.636c-7.182-.546-15.631-.863-24.679-.863-26.082,0-47.227,2.619-47.227,5.849S46.176,53.47,72.258,53.47c8.118,0,15.758-.253,22.43-.7h0l.861-1.12Z" transform="translate(-25.031 -41.771)" fill="#6b8199"/>
                </g>
              </g>
            </g>
            <path id="Caminho_10044" data-name="Caminho 10044" d="M116.392,62.941l-2.946-.7,1.372,3.324-.525,3.673-5.494-.83s-4.477-2.843-5-2.843-7.346-2.221-7.346-2.221L92.66,59.268H86.482l-5.247-2.1,1.424-4.34-2.474-5.105L3.031,47.418v19.94c0,4.927,25.608,8.921,57.2,8.921s57.2-3.994,57.2-8.921V62.941Z" transform="translate(-1.441 -22.536)" fill="#08162b"/>
            <path id="Caminho_10045" data-name="Caminho 10045" d="M104.041,83.931h8.06a.579.579,0,0,0,.5-.864l-4.03-7.109a.579.579,0,0,0-1.007,0l-4.03,7.109a.579.579,0,0,0,.5.864" transform="translate(-49.171 -35.96)" fill="#3e5570"/>
            <path id="Caminho_10046" data-name="Caminho 10046" d="M82.808,44.694l.525-1.574,2.811-1.42-2.2-3.548,1.531-2.6-.3-.423c-7.541-.454-16-.709-24.949-.709-31.589,0-57.2,3.172-57.2,7.084s25.608,7.084,57.2,7.084c7.786,0,15.208-.193,21.973-.542l.457-1.394.861-1.12Z" transform="translate(-1.441 -16.357)" fill="#102a52"/>
            <path id="Caminho_10047" data-name="Caminho 10047" d="M91.838,45.812l.525-1.574,2.811-1.42-2.2-3.548.963-1.636c-7.182-.546-15.631-.863-24.679-.863-26.082,0-47.227,2.619-47.227,5.849S43.176,48.47,69.258,48.47c8.118,0,15.758-.253,22.43-.7h0l.861-1.12Z" transform="translate(-10.47 -17.476)" fill="#3e5570"/>
            <path id="Caminho_10048" data-name="Caminho 10048" d="M93.937,37.634c-7.183-.546-15.631-.863-24.679-.863-26.082,0-47.227,2.619-47.227,5.849,0,.428.375.845,1.078,1.247a.8.8,0,0,1-.029-.2c0-3.23,20.674-5.849,46.177-5.849,8.819,0,17.055.314,24.064.857Z" transform="translate(-10.47 -17.476)" fill="#2a3a4d"/>
            <path id="Caminho_10049" data-name="Caminho 10049" d="M115.045,141.6a33.726,33.726,0,1,1-33.726-33.726A33.726,33.726,0,0,1,115.045,141.6" transform="translate(-22.618 -51.267)" fill="#cfdae6"/>
            <path id="Caminho_10050" data-name="Caminho 10050" d="M114.957,142.448a32.789,32.789,0,1,1-32.789-32.789,32.789,32.789,0,0,1,32.789,32.789" transform="translate(-23.467 -52.116)" fill="#f1f4fa"/>
            <path id="Caminho_10051" data-name="Caminho 10051" d="M114.52,146.634a28.167,28.167,0,1,1-28.167-28.167,28.167,28.167,0,0,1,28.167,28.167" transform="translate(-27.653 -56.302)" fill="#fff"/>
            <path id="Caminho_10052" data-name="Caminho 10052" d="M86.353,199.327A28.163,28.163,0,0,1,58.194,171.5c0,.113-.008.225-.008.339a28.167,28.167,0,0,0,56.334,0c0-.114-.007-.226-.008-.339a28.163,28.163,0,0,1-28.159,27.828" transform="translate(-27.653 -81.506)" fill="#f1f4fa"/>
            <path id="Caminho_10053" data-name="Caminho 10053" d="M86.353,119.146a28.163,28.163,0,0,1,28.159,27.828c0-.113.008-.225.008-.339a28.167,28.167,0,1,0-56.334,0c0,.114.007.226.008.339a28.163,28.163,0,0,1,28.159-27.828" transform="translate(-27.653 -56.302)" fill="#cfdae6"/>
            <path id="Caminho_10054" data-name="Caminho 10054" d="M113.458,152.619H100.786V139.948H92.338v12.672H79.667v8.448H92.338v12.672h8.448V161.067h12.672Z" transform="translate(-37.862 -66.511)" fill="#e60c32"/>
          </g>
        </g>
      </g>
    </g>
  </g>
</svg>
