<svg xmlns="http://www.w3.org/2000/svg" xmlns:xlink="http://www.w3.org/1999/xlink" width="174" height="174" viewBox="0 0 174 174">
  <defs>
    <clipPath id="clip-path">
      <rect id="Retângulo_10642" data-name="Retângulo 10642" width="174" height="96.364" fill="none"/>
    </clipPath>
  </defs>
  <g id="img_conectividade" transform="translate(-236 -407)">
    <rect id="Retângulo_9879" data-name="Retângulo 9879" width="174" height="174" transform="translate(236 407)" fill="#fff" opacity="0"/>
    <g id="Grupo_4154" data-name="Grupo 4154" transform="translate(236 445.818)">
      <g id="Grupo_4153" data-name="Grupo 4153" clip-path="url(#clip-path)">
        <path id="Caminho_10161" data-name="Caminho 10161" d="M533,366.585h38.793a1.253,1.253,0,1,0,0-2.5h-2a.607.607,0,0,1-.619-.594v-.235a.607.607,0,0,1,.619-.594h1.09a.606.606,0,0,0,.618-.594v-.47a.607.607,0,0,0-.618-.594H535.134a.607.607,0,0,0-.619.594v.47a.607.607,0,0,0,.619.594.607.607,0,0,1,.618.594v.235a.607.607,0,0,1-.618.594H533a1.253,1.253,0,1,0,0,2.5" transform="translate(-399.097 -270.97)" fill="#e4e8f0"/>
        <path id="Caminho_10162" data-name="Caminho 10162" d="M571.057,373.245H565.82a1.122,1.122,0,0,1,0-2.245h5.237a1.122,1.122,0,1,1,0,2.245" transform="translate(-423.867 -278.476)" fill="#040c16"/>
        <path id="Caminho_10163" data-name="Caminho 10163" d="M643.057,373.245H637.82a1.122,1.122,0,1,1,0-2.245h5.237a1.122,1.122,0,0,1,0,2.245" transform="translate(-477.911 -278.476)" fill="#040c16"/>
        <path id="Caminho_10164" data-name="Caminho 10164" d="M4.095,359.785H126.012c2.261,0,4.095-.887,4.095-1.982s-1.833-1.981-4.095-1.981h-6.28c-1.073,0-1.944-.421-1.944-.941v-.372c0-.519.87-.941,1.944-.941h3.426c1.073,0,1.944-.421,1.944-.941v-.744c0-.52-.87-.941-1.944-.941H10.8c-1.074,0-1.944.421-1.944.941v.744c0,.519.87.941,1.944.941s1.944.421,1.944.941v.372c0,.52-.87.941-1.944.941h-6.7c-2.261,0-4.095.887-4.095,1.981s1.833,1.982,4.095,1.982" transform="translate(0 -263.421)" fill="#e4e8f0"/>
        <path id="Caminho_10165" data-name="Caminho 10165" d="M133.958,111.422H18.525a1.612,1.612,0,0,1-1.612-1.612V45.967a1.612,1.612,0,0,1,1.612-1.612H133.958a1.612,1.612,0,0,1,1.612,1.612V109.81a1.612,1.612,0,0,1-1.612,1.612" transform="translate(-12.695 -33.293)" fill="#2a3a4d"/>
        <rect id="Retângulo_10543" data-name="Retângulo 10543" width="110.163" height="58.754" transform="translate(8.538 15.382)" fill="#fff"/>
        <path id="Caminho_10166" data-name="Caminho 10166" d="M223.7,326.046H192.746l6.449-12.769h18.056Z" transform="translate(-144.677 -235.149)" fill="#2a3a4d"/>
        <path id="Caminho_10167" data-name="Caminho 10167" d="M181.584,364.478h30.954l3.54,2.468a.645.645,0,0,1-.477,1.079H178.522a.645.645,0,0,1-.477-1.079Z" transform="translate(-133.515 -273.58)" fill="#3e5570"/>
        <path id="Caminho_10168" data-name="Caminho 10168" d="M177.875,376.13v.332a.322.322,0,0,0,.322.322h37.727a.322.322,0,0,0,.322-.322v-.332Z" transform="translate(-133.515 -282.326)" fill="#192633"/>
        <path id="Caminho_10169" data-name="Caminho 10169" d="M233.26,316.628l-1.692-3.351H213.511l-1.692,3.351Z" transform="translate(-158.993 -235.148)" fill="#192633"/>
        <rect id="Retângulo_10544" data-name="Retângulo 10544" width="8.482" height="1.983" transform="translate(14.78 23.606)" fill="#6b8199"/>
        <rect id="Retângulo_10545" data-name="Retângulo 10545" width="8.482" height="1.983" transform="translate(14.78 48.392)" fill="#6b8199"/>
        <rect id="Retângulo_10546" data-name="Retângulo 10546" width="8.482" height="1.983" transform="translate(20.435 26.58)" fill="#6b8199"/>
        <rect id="Retângulo_10547" data-name="Retângulo 10547" width="8.482" height="1.983" transform="translate(20.435 45.418)" fill="#6b8199"/>
        <rect id="Retângulo_10548" data-name="Retângulo 10548" width="8.482" height="1.983" transform="translate(26.09 30.546)" fill="#6b8199"/>
        <rect id="Retângulo_10549" data-name="Retângulo 10549" width="14.136" height="1.983" transform="translate(35.985 30.546)" fill="#6b8199"/>
        <rect id="Retângulo_10550" data-name="Retângulo 10550" width="8.482" height="1.983" transform="translate(84.05 30.546)" fill="#6b8199"/>
        <rect id="Retângulo_10551" data-name="Retângulo 10551" width="18.378" height="1.983" transform="translate(58.604 30.546)" fill="#6b8199"/>
        <rect id="Retângulo_10552" data-name="Retângulo 10552" width="2.827" height="1.983" transform="translate(51.535 30.546)" fill="#6b8199"/>
        <rect id="Retângulo_10553" data-name="Retângulo 10553" width="1.414" height="1.983" transform="translate(55.777 30.546)" fill="#6b8199"/>
        <rect id="Retângulo_10554" data-name="Retângulo 10554" width="1.414" height="1.983" transform="translate(81.222 30.546)" fill="#6b8199"/>
        <rect id="Retângulo_10555" data-name="Retângulo 10555" width="1.414" height="1.983" transform="translate(78.395 30.546)" fill="#6b8199"/>
        <rect id="Retângulo_10556" data-name="Retângulo 10556" width="8.482" height="1.983" transform="translate(26.09 36.495)" fill="#6b8199"/>
        <rect id="Retângulo_10557" data-name="Retângulo 10557" width="14.136" height="1.983" transform="translate(36.12 36.495)" fill="#6b8199"/>
        <rect id="Retângulo_10558" data-name="Retângulo 10558" width="12.252" height="1.983" transform="translate(59.142 36.495)" fill="#6b8199"/>
        <rect id="Retângulo_10559" data-name="Retângulo 10559" width="2.827" height="1.983" transform="translate(51.805 36.495)" fill="#6b8199"/>
        <rect id="Retângulo_10560" data-name="Retângulo 10560" width="14.136" height="1.983" transform="translate(75.433 36.495)" fill="#6b8199"/>
        <rect id="Retângulo_10561" data-name="Retângulo 10561" width="2.827" height="1.983" transform="translate(91.118 36.495)" fill="#6b8199"/>
        <rect id="Retângulo_10562" data-name="Retângulo 10562" width="1.414" height="1.983" transform="translate(56.18 36.495)" fill="#6b8199"/>
        <rect id="Retângulo_10563" data-name="Retângulo 10563" width="0.942" height="1.983" transform="translate(72.942 36.495)" fill="#6b8199"/>
        <rect id="Retângulo_10564" data-name="Retângulo 10564" width="14.136" height="1.983" transform="translate(68.499 33.52)" fill="#6b8199"/>
        <rect id="Retângulo_10565" data-name="Retângulo 10565" width="8.482" height="1.983" transform="translate(26.09 33.52)" fill="#6b8199"/>
        <rect id="Retângulo_10566" data-name="Retângulo 10566" width="18.378" height="1.983" transform="translate(41.64 33.52)" fill="#6b8199"/>
        <rect id="Retângulo_10567" data-name="Retângulo 10567" width="2.827" height="1.983" transform="translate(64.258 33.52)" fill="#6b8199"/>
        <rect id="Retângulo_10568" data-name="Retângulo 10568" width="1.414" height="1.983" transform="translate(61.431 33.52)" fill="#6b8199"/>
        <rect id="Retângulo_10569" data-name="Retângulo 10569" width="1.414" height="1.983" transform="translate(35.985 33.52)" fill="#6b8199"/>
        <rect id="Retângulo_10570" data-name="Retângulo 10570" width="1.414" height="1.983" transform="translate(38.813 33.52)" fill="#6b8199"/>
        <rect id="Retângulo_10571" data-name="Retângulo 10571" width="8.482" height="1.983" transform="translate(26.09 39.469)" fill="#6b8199"/>
        <rect id="Retângulo_10572" data-name="Retângulo 10572" width="14.136" height="1.983" transform="translate(35.985 39.469)" fill="#6b8199"/>
        <rect id="Retângulo_10573" data-name="Retângulo 10573" width="8.482" height="1.983" transform="translate(84.05 39.469)" fill="#6b8199"/>
        <rect id="Retângulo_10574" data-name="Retângulo 10574" width="18.378" height="1.983" transform="translate(58.604 39.469)" fill="#6b8199"/>
        <rect id="Retângulo_10575" data-name="Retângulo 10575" width="2.827" height="1.983" transform="translate(51.535 39.469)" fill="#6b8199"/>
        <rect id="Retângulo_10576" data-name="Retângulo 10576" width="1.414" height="1.983" transform="translate(55.777 39.469)" fill="#6b8199"/>
        <rect id="Retângulo_10577" data-name="Retângulo 10577" width="1.414" height="1.983" transform="translate(81.222 39.469)" fill="#6b8199"/>
        <rect id="Retângulo_10578" data-name="Retângulo 10578" width="1.414" height="1.983" transform="translate(78.395 39.469)" fill="#6b8199"/>
        <rect id="Retângulo_10579" data-name="Retângulo 10579" width="14.136" height="1.983" transform="translate(68.499 42.443)" fill="#6b8199"/>
        <rect id="Retângulo_10580" data-name="Retângulo 10580" width="8.482" height="1.983" transform="translate(26.09 42.443)" fill="#6b8199"/>
        <rect id="Retângulo_10581" data-name="Retângulo 10581" width="18.378" height="1.983" transform="translate(41.64 42.443)" fill="#6b8199"/>
        <rect id="Retângulo_10582" data-name="Retângulo 10582" width="2.827" height="1.983" transform="translate(64.258 42.443)" fill="#6b8199"/>
        <rect id="Retângulo_10583" data-name="Retângulo 10583" width="1.414" height="1.983" transform="translate(61.431 42.443)" fill="#6b8199"/>
        <rect id="Retângulo_10584" data-name="Retângulo 10584" width="1.414" height="1.983" transform="translate(35.985 42.443)" fill="#6b8199"/>
        <rect id="Retângulo_10585" data-name="Retângulo 10585" width="1.414" height="1.983" transform="translate(38.813 42.443)" fill="#6b8199"/>
        <rect id="Retângulo_10586" data-name="Retângulo 10586" width="8.482" height="1.983" transform="translate(14.78 53.415)" fill="#6b8199"/>
        <rect id="Retângulo_10587" data-name="Retângulo 10587" width="8.482" height="1.983" transform="translate(20.435 56.389)" fill="#6b8199"/>
        <rect id="Retângulo_10588" data-name="Retângulo 10588" width="8.482" height="1.983" transform="translate(26.09 60.355)" fill="#6b8199"/>
        <rect id="Retângulo_10589" data-name="Retângulo 10589" width="14.136" height="1.983" transform="translate(35.985 60.355)" fill="#6b8199"/>
        <rect id="Retângulo_10590" data-name="Retângulo 10590" width="8.482" height="1.983" transform="translate(84.05 60.355)" fill="#6b8199"/>
        <rect id="Retângulo_10591" data-name="Retângulo 10591" width="18.378" height="1.983" transform="translate(58.604 60.355)" fill="#6b8199"/>
        <rect id="Retângulo_10592" data-name="Retângulo 10592" width="2.827" height="1.983" transform="translate(51.535 60.355)" fill="#6b8199"/>
        <rect id="Retângulo_10593" data-name="Retângulo 10593" width="1.414" height="1.983" transform="translate(55.777 60.355)" fill="#6b8199"/>
        <rect id="Retângulo_10594" data-name="Retângulo 10594" width="1.414" height="1.983" transform="translate(81.222 60.355)" fill="#6b8199"/>
        <rect id="Retângulo_10595" data-name="Retângulo 10595" width="1.414" height="1.983" transform="translate(78.395 60.355)" fill="#6b8199"/>
        <rect id="Retângulo_10596" data-name="Retângulo 10596" width="8.482" height="1.983" transform="translate(26.09 66.303)" fill="#6b8199"/>
        <rect id="Retângulo_10597" data-name="Retângulo 10597" width="14.136" height="1.983" transform="translate(36.12 66.303)" fill="#6b8199"/>
        <rect id="Retângulo_10598" data-name="Retângulo 10598" width="12.252" height="1.983" transform="translate(59.142 66.303)" fill="#6b8199"/>
        <rect id="Retângulo_10599" data-name="Retângulo 10599" width="2.827" height="1.983" transform="translate(51.805 66.303)" fill="#6b8199"/>
        <rect id="Retângulo_10600" data-name="Retângulo 10600" width="14.136" height="1.983" transform="translate(75.433 66.303)" fill="#6b8199"/>
        <rect id="Retângulo_10601" data-name="Retângulo 10601" width="2.827" height="1.983" transform="translate(91.118 66.303)" fill="#6b8199"/>
        <rect id="Retângulo_10602" data-name="Retângulo 10602" width="1.414" height="1.983" transform="translate(56.18 66.303)" fill="#6b8199"/>
        <rect id="Retângulo_10603" data-name="Retângulo 10603" width="0.942" height="1.983" transform="translate(72.942 66.303)" fill="#6b8199"/>
        <rect id="Retângulo_10604" data-name="Retângulo 10604" width="14.136" height="1.983" transform="translate(68.499 63.329)" fill="#6b8199"/>
        <rect id="Retângulo_10605" data-name="Retângulo 10605" width="8.482" height="1.983" transform="translate(26.09 63.329)" fill="#6b8199"/>
        <rect id="Retângulo_10606" data-name="Retângulo 10606" width="18.378" height="1.983" transform="translate(41.64 63.329)" fill="#6b8199"/>
        <rect id="Retângulo_10607" data-name="Retângulo 10607" width="2.827" height="1.983" transform="translate(64.258 63.329)" fill="#6b8199"/>
        <rect id="Retângulo_10608" data-name="Retângulo 10608" width="1.414" height="1.983" transform="translate(61.431 63.329)" fill="#6b8199"/>
        <rect id="Retângulo_10609" data-name="Retângulo 10609" width="1.414" height="1.983" transform="translate(35.985 63.329)" fill="#6b8199"/>
        <rect id="Retângulo_10610" data-name="Retângulo 10610" width="1.414" height="1.983" transform="translate(38.813 63.329)" fill="#6b8199"/>
        <rect id="Retângulo_10611" data-name="Retângulo 10611" width="8.482" height="1.983" transform="translate(26.09 69.278)" fill="#6b8199"/>
        <rect id="Retângulo_10612" data-name="Retângulo 10612" width="14.136" height="1.983" transform="translate(35.985 69.278)" fill="#6b8199"/>
        <rect id="Retângulo_10613" data-name="Retângulo 10613" width="8.482" height="1.983" transform="translate(84.05 69.278)" fill="#6b8199"/>
        <rect id="Retângulo_10614" data-name="Retângulo 10614" width="18.378" height="1.983" transform="translate(58.604 69.278)" fill="#6b8199"/>
        <rect id="Retângulo_10615" data-name="Retângulo 10615" width="2.827" height="1.983" transform="translate(51.535 69.278)" fill="#6b8199"/>
        <rect id="Retângulo_10616" data-name="Retângulo 10616" width="1.414" height="1.983" transform="translate(55.777 69.278)" fill="#6b8199"/>
        <rect id="Retângulo_10617" data-name="Retângulo 10617" width="1.414" height="1.983" transform="translate(81.222 69.278)" fill="#6b8199"/>
        <rect id="Retângulo_10618" data-name="Retângulo 10618" width="1.414" height="1.983" transform="translate(78.395 69.278)" fill="#6b8199"/>
        <rect id="Retângulo_10619" data-name="Retângulo 10619" width="110.163" height="6.048" transform="translate(8.538 15.382)" fill="#08162b"/>
        <path id="Caminho_10170" data-name="Caminho 10170" d="M44.625,71.2a.864.864,0,1,1-.864-.864.864.864,0,0,1,.864.864" transform="translate(-32.199 -52.797)" fill="#ed1e79"/>
        <path id="Caminho_10171" data-name="Caminho 10171" d="M56.751,71.2a.864.864,0,1,1-.864-.864.864.864,0,0,1,.864.864" transform="translate(-41.301 -52.797)" fill="#fbb03b"/>
        <path id="Caminho_10172" data-name="Caminho 10172" d="M68.876,71.2a.864.864,0,1,1-.864-.864.864.864,0,0,1,.864.864" transform="translate(-50.402 -52.797)" fill="#6bba06"/>
        <path id="Caminho_10173" data-name="Caminho 10173" d="M580.446,93.522h-31.08a1.668,1.668,0,0,1-1.668-1.668V1.668A1.668,1.668,0,0,1,549.366,0h31.08a1.668,1.668,0,0,1,1.668,1.668V91.854a1.668,1.668,0,0,1-1.668,1.668" transform="translate(-411.107)" fill="#08162b"/>
        <path id="Caminho_10174" data-name="Caminho 10174" d="M580.446,0h-31.08A1.668,1.668,0,0,0,547.7,1.668v1A1.668,1.668,0,0,1,549.366,1h31.08a1.668,1.668,0,0,1,1.668,1.668v-1A1.668,1.668,0,0,0,580.446,0" transform="translate(-411.107)" fill="#183e78"/>
        <rect id="Retângulo_10620" data-name="Retângulo 10620" width="25.173" height="1.247" transform="translate(141.213 70.002)" fill="#08121c"/>
        <rect id="Retângulo_10621" data-name="Retângulo 10621" width="25.173" height="1.247" transform="translate(141.213 72.77)" fill="#08121c"/>
        <rect id="Retângulo_10622" data-name="Retângulo 10622" width="25.173" height="1.247" transform="translate(141.213 75.539)" fill="#08121c"/>
        <rect id="Retângulo_10623" data-name="Retângulo 10623" width="25.173" height="1.247" transform="translate(141.213 78.307)" fill="#08121c"/>
        <rect id="Retângulo_10624" data-name="Retângulo 10624" width="25.173" height="1.247" transform="translate(141.213 81.075)" fill="#08121c"/>
        <rect id="Retângulo_10625" data-name="Retângulo 10625" width="25.173" height="0.249" transform="translate(141.213 71)" fill="#102a52"/>
        <rect id="Retângulo_10626" data-name="Retângulo 10626" width="25.173" height="0.249" transform="translate(141.213 73.768)" fill="#102a52"/>
        <rect id="Retângulo_10627" data-name="Retângulo 10627" width="25.173" height="0.249" transform="translate(141.213 76.536)" fill="#102a52"/>
        <rect id="Retângulo_10628" data-name="Retângulo 10628" width="25.173" height="0.249" transform="translate(141.213 79.304)" fill="#102a52"/>
        <rect id="Retângulo_10629" data-name="Retângulo 10629" width="25.173" height="0.249" transform="translate(141.213 82.073)" fill="#102a52"/>
        <rect id="Retângulo_10630" data-name="Retângulo 10630" width="25.173" height="1.247" transform="translate(141.213 56.036)" fill="#08121c"/>
        <rect id="Retângulo_10631" data-name="Retângulo 10631" width="25.173" height="1.247" transform="translate(141.213 58.804)" fill="#08121c"/>
        <rect id="Retângulo_10632" data-name="Retângulo 10632" width="25.173" height="1.247" transform="translate(141.213 61.573)" fill="#08121c"/>
        <rect id="Retângulo_10633" data-name="Retângulo 10633" width="25.173" height="1.247" transform="translate(141.213 64.341)" fill="#08121c"/>
        <rect id="Retângulo_10634" data-name="Retângulo 10634" width="25.173" height="1.247" transform="translate(141.213 67.109)" fill="#08121c"/>
        <rect id="Retângulo_10635" data-name="Retângulo 10635" width="25.173" height="0.249" transform="translate(141.213 57.034)" fill="#102a52"/>
        <rect id="Retângulo_10636" data-name="Retângulo 10636" width="25.173" height="0.249" transform="translate(141.213 59.802)" fill="#102a52"/>
        <rect id="Retângulo_10637" data-name="Retângulo 10637" width="25.173" height="0.249" transform="translate(141.213 62.57)" fill="#102a52"/>
        <rect id="Retângulo_10638" data-name="Retângulo 10638" width="25.173" height="0.249" transform="translate(141.213 65.338)" fill="#102a52"/>
        <rect id="Retângulo_10639" data-name="Retângulo 10639" width="25.173" height="0.249" transform="translate(141.213 68.107)" fill="#102a52"/>
        <path id="Caminho_10175" data-name="Caminho 10175" d="M608.441,30.77a2.743,2.743,0,0,1-1.481-5.051.329.329,0,0,1,.356.553,2.085,2.085,0,1,0,2.251,0,.329.329,0,1,1,.356-.553,2.743,2.743,0,0,1-1.482,5.051m.329-3.564V25.122a.329.329,0,1,0-.658,0v2.084a.329.329,0,0,0,.658,0" transform="translate(-454.642 -18.61)" fill="#a3e038"/>
        <rect id="Retângulo_10640" data-name="Retângulo 10640" width="34.416" height="0.499" transform="translate(136.591 18.21)" fill="#08121c"/>
        <rect id="Retângulo_10641" data-name="Retângulo 10641" width="34.416" height="0.1" transform="translate(136.591 18.609)" fill="#102a52"/>
        <path id="Caminho_10176" data-name="Caminho 10176" d="M636.155,146.033h3.42a.247.247,0,0,0,.215-.369l-1.721-3.035a.247.247,0,0,0-.43,0l-1.72,3.035a.247.247,0,0,0,.215.369" transform="translate(-477.302 -106.965)" fill="#6bba06"/>
        <path id="Caminho_10177" data-name="Caminho 10177" d="M594.737,142.126l-1.015,1.782-1.016-1.782a.25.25,0,0,0-.217-.126h-2.12a.25.25,0,0,0-.218.126l-1.008,1.77-1.009-1.77a.25.25,0,0,0-.217-.126h-2.9a.25.25,0,0,0-.217.373l4.126,7.24a.25.25,0,0,0,.435,0l2.068-3.642L593.5,149.6a.259.259,0,0,0,.2.135.252.252,0,0,0,.238-.126l4.127-7.24a.25.25,0,0,0-.217-.374h-2.894a.25.25,0,0,0-.217.126" transform="translate(-438.93 -106.586)" fill="#fff"/>
      </g>
    </g>
  </g>
</svg>
