<svg xmlns="http://www.w3.org/2000/svg" xmlns:xlink="http://www.w3.org/1999/xlink" width="174" height="174" viewBox="0 0 174 174">
  <defs>
    <clipPath id="clip-path">
      <rect id="Retângulo_9837" data-name="Retângulo 9837" width="173.574" height="113.935" fill="none"/>
    </clipPath>
    <clipPath id="clip-path-2">
      <rect id="Retângulo_9825" data-name="Retângulo 9825" width="4.995" height="20.433" fill="none"/>
    </clipPath>
    <clipPath id="clip-path-4">
      <rect id="Retângulo_9828" data-name="Retângulo 9828" width="2.724" height="18.163" fill="none"/>
    </clipPath>
    <clipPath id="clip-path-8">
      <rect id="Retângulo_9836" data-name="Retângulo 9836" width="91.333" height="18.381" fill="none"/>
    </clipPath>
    <clipPath id="clip-path-9">
      <path id="Retângulo_9839" data-name="Retângulo 9839" d="M5,0H86.116a5,5,0,0,1,5,5v8.165a5,5,0,0,1-5,5H5a5,5,0,0,1-5-5V5A5,5,0,0,1,5,0Z" fill="none"/>
    </clipPath>
    <clipPath id="clip-path-10">
      <rect id="Retângulo_9838" data-name="Retângulo 9838" width="91.118" height="21.128" fill="none"/>
    </clipPath>
    <clipPath id="clip-path-19">
      <rect id="Retângulo_9854" data-name="Retângulo 9854" width="91.333" height="18.38" fill="none"/>
    </clipPath>
    <clipPath id="clip-path-20">
      <path id="Retângulo_9857" data-name="Retângulo 9857" d="M5,0H86.117a5,5,0,0,1,5,5v8.167a5,5,0,0,1-5,5H5a5,5,0,0,1-5-5V5A5,5,0,0,1,5,0Z" fill="none"/>
    </clipPath>
  </defs>
  <g id="img_instâncias" transform="translate(-235.787 -407)">
    <rect id="Retângulo_9879" data-name="Retângulo 9879" width="174" height="174" transform="translate(235.787 407)" fill="#fff" opacity="0"/>
    <g id="Grupo_2546" data-name="Grupo 2546" transform="translate(236 436.652)">
      <g id="img_instâncias-2" data-name="img_instâncias" transform="translate(0 0)">
        <g id="Grupo_2472" data-name="Grupo 2472">
          <g id="Grupo_2471" data-name="Grupo 2471" clip-path="url(#clip-path)">
            <path id="Caminho_2162" data-name="Caminho 2162" d="M5.463,308.147H168.112c3.017,0,5.462-1.006,5.462-2.248s-2.446-2.248-5.462-2.248h-8.377c-1.432,0-2.593-.478-2.593-1.067v-.422c0-.589,1.161-1.067,2.593-1.067h4.571c1.432,0,2.593-.478,2.593-1.067v-.843c0-.589-1.161-1.067-2.593-1.067H14.4c-1.432,0-2.593.478-2.593,1.067v.843c0,.589,1.161,1.067,2.593,1.067S17,301.572,17,302.162v.422c0,.589-1.161,1.067-2.593,1.067H5.463C2.446,303.651,0,304.657,0,305.9s2.446,2.248,5.463,2.248" transform="translate(0 -194.212)" fill="#e4e8f0"/>
            <rect id="Retângulo_9824" data-name="Retângulo 9824" width="130.771" height="4.867" transform="translate(21.385 31.68)" fill="#030912"/>
            <path id="Caminho_2163" data-name="Caminho 2163" d="M184,32.239H43.236a2.724,2.724,0,0,1-2.724-2.725V2.725A2.724,2.724,0,0,1,43.236,0H184a2.725,2.725,0,0,1,2.725,2.725v26.79A2.725,2.725,0,0,1,184,32.239" transform="translate(-26.392)" fill="#08162b"/>
            <g id="Grupo_2452" data-name="Grupo 2452" transform="translate(18.585 6.357)" style="mix-blend-mode: multiply;isolation: isolate">
              <g id="Grupo_2451" data-name="Grupo 2451">
                <g id="Grupo_2450" data-name="Grupo 2450" clip-path="url(#clip-path-2)">
                  <path id="Caminho_2164" data-name="Caminho 2164" d="M55.82,38.672h0a2.5,2.5,0,0,1-2.5-2.5V20.737a2.5,2.5,0,1,1,4.995,0V36.175a2.5,2.5,0,0,1-2.5,2.5" transform="translate(-53.323 -18.239)" fill="#08162b"/>
                </g>
              </g>
            </g>
            <path id="Caminho_2165" data-name="Caminho 2165" d="M54.518,36.066h0a2.5,2.5,0,0,1-2.5-2.5V18.131a2.5,2.5,0,1,1,4.995,0V33.569a2.5,2.5,0,0,1-2.5,2.5" transform="translate(-33.89 -10.184)" fill="#3e5570"/>
            <path id="Caminho_2166" data-name="Caminho 2166" d="M52.474,33.569V18.131a2.5,2.5,0,0,1,2.27-2.486c-.075-.007-.151-.011-.227-.011a2.5,2.5,0,0,0-2.5,2.5V33.569a2.5,2.5,0,0,0,2.5,2.5c.077,0,.152,0,.227-.012a2.5,2.5,0,0,1-2.27-2.486" transform="translate(-33.889 -10.185)" fill="#6b8199"/>
            <g id="Grupo_2455" data-name="Grupo 2455" transform="translate(150.869 6.357)" style="mix-blend-mode: multiply;isolation: isolate">
              <g id="Grupo_2454" data-name="Grupo 2454">
                <g id="Grupo_2453" data-name="Grupo 2453" clip-path="url(#clip-path-2)">
                  <path id="Caminho_2167" data-name="Caminho 2167" d="M435.359,38.672h0a2.5,2.5,0,0,0,2.5-2.5V20.737a2.5,2.5,0,1,0-4.995,0V36.175a2.5,2.5,0,0,0,2.5,2.5" transform="translate(-432.862 -18.239)" fill="#08162b"/>
                </g>
              </g>
            </g>
            <path id="Caminho_2168" data-name="Caminho 2168" d="M436.662,36.066h0a2.5,2.5,0,0,0,2.5-2.5V18.131a2.5,2.5,0,1,0-4.995,0V33.569a2.5,2.5,0,0,0,2.5,2.5" transform="translate(-282.842 -10.184)" fill="#3e5570"/>
            <path id="Caminho_2169" data-name="Caminho 2169" d="M442.948,33.569V18.131a2.5,2.5,0,0,0-2.27-2.486c.075-.007.151-.011.227-.011a2.5,2.5,0,0,1,2.5,2.5V33.569a2.5,2.5,0,0,1-2.5,2.5c-.077,0-.152,0-.227-.012a2.5,2.5,0,0,0,2.27-2.486" transform="translate(-287.085 -10.185)" fill="#6b8199"/>
            <path id="Caminho_2170" data-name="Caminho 2170" d="M409.608,40.391h4.668a.335.335,0,0,0,.291-.5l-2.334-4.117a.335.335,0,0,0-.583,0l-2.333,4.117a.335.335,0,0,0,.291.5" transform="translate(-266.625 -23.194)" fill="#6bba21"/>
            <g id="Grupo_2458" data-name="Grupo 2458" transform="translate(124.703 7.038)" style="mix-blend-mode: multiply;isolation: isolate">
              <g id="Grupo_2457" data-name="Grupo 2457">
                <g id="Grupo_2456" data-name="Grupo 2456" clip-path="url(#clip-path-4)">
                  <rect id="Retângulo_9827" data-name="Retângulo 9827" width="2.725" height="18.163" transform="translate(0)" fill="#08162b"/>
                </g>
              </g>
            </g>
            <g id="Grupo_2461" data-name="Grupo 2461" transform="translate(128.79 7.038)" style="mix-blend-mode: multiply;isolation: isolate">
              <g id="Grupo_2460" data-name="Grupo 2460">
                <g id="Grupo_2459" data-name="Grupo 2459" clip-path="url(#clip-path-4)">
                  <rect id="Retângulo_9829" data-name="Retângulo 9829" width="2.725" height="18.163" transform="translate(0)" fill="#08162b"/>
                </g>
              </g>
            </g>
            <g id="Grupo_2464" data-name="Grupo 2464" transform="translate(132.877 7.038)" style="mix-blend-mode: multiply;isolation: isolate">
              <g id="Grupo_2463" data-name="Grupo 2463">
                <g id="Grupo_2462" data-name="Grupo 2462" clip-path="url(#clip-path-4)">
                  <rect id="Retângulo_9831" data-name="Retângulo 9831" width="2.725" height="18.163" transform="translate(0)" fill="#08162b"/>
                </g>
              </g>
            </g>
            <g id="Grupo_2467" data-name="Grupo 2467" transform="translate(136.963 7.038)" style="mix-blend-mode: multiply;isolation: isolate">
              <g id="Grupo_2466" data-name="Grupo 2466">
                <g id="Grupo_2465" data-name="Grupo 2465" clip-path="url(#clip-path-4)">
                  <rect id="Retângulo_9833" data-name="Retângulo 9833" width="2.725" height="18.163" transform="translate(0)" fill="#08162b"/>
                </g>
              </g>
            </g>
            <g id="Grupo_2470" data-name="Grupo 2470" transform="translate(29.158 6.929)" style="mix-blend-mode: multiply;isolation: isolate">
              <g id="Grupo_2469" data-name="Grupo 2469">
                <g id="Grupo_2468" data-name="Grupo 2468" clip-path="url(#clip-path-8)">
                  <rect id="Retângulo_9835" data-name="Retângulo 9835" width="91.116" height="18.163" rx="4.999" transform="translate(0.109 0.109)" fill="none" stroke="#08162b" stroke-width="0.625"/>
                </g>
              </g>
            </g>
          </g>
        </g>
        <g id="Grupo_2477" data-name="Grupo 2477" transform="translate(29.267 7.038)">
          <g id="Grupo_2476" data-name="Grupo 2476" clip-path="url(#clip-path-9)">
            <g id="Grupo_2475" data-name="Grupo 2475" transform="translate(-0.097 -1.555)" style="mix-blend-mode: multiply;isolation: isolate">
              <g id="Grupo_2474" data-name="Grupo 2474">
                <g id="Grupo_2473" data-name="Grupo 2473" clip-path="url(#clip-path-10)">
                  <path id="Caminho_2171" data-name="Caminho 2171" d="M84.568,19.012h-.877V15.975h.877l.877,1.519Zm3.037-1.758.877-1.519v0h-3.5v0l.877,1.519Zm1.283,1.758h1.754l.877-1.518-.877-1.519H88.888l-.877,1.519Zm4.791-1.758.877-1.519v0h-3.5v0l.877,1.519Zm1.284,1.758h1.754l.877-1.518-.877-1.519H94.963l-.877,1.519Zm4.791-1.758.877-1.519v0h-3.5v0L98,17.254Zm1.283,1.758h1.754l.877-1.518-.877-1.519h-1.754l-.877,1.519Zm4.791-1.758.877-1.519v0h-3.5l0,0,.877,1.519Zm1.284,1.758h1.754l.877-1.518-.877-1.519h-1.754l-.877,1.519Zm4.791-1.758.877-1.519v0h-3.5v0l.877,1.519Zm1.284,1.758h1.754l.877-1.518-.877-1.519h-1.754l-.877,1.519Zm4.791-1.758.877-1.519v0h-3.5v0l.877,1.519Zm1.284,1.758h1.754l.877-1.518-.877-1.519h-1.754l-.877,1.519Zm4.791-1.758.877-1.519v0h-3.5v0l.877,1.519Zm1.284,1.758h1.754l.877-1.518-.877-1.519h-1.754l-.877,1.519Zm4.791-1.758L131,15.735v0h-3.5v0l.877,1.519Zm1.283,1.758h1.754l.877-1.518-.877-1.519H131.41l-.877,1.519Zm4.791-1.758.877-1.519v0h-3.5v0l.877,1.519Zm1.284,1.758h1.754l.877-1.518-.877-1.519h-1.754l-.877,1.519Zm4.791-1.758.877-1.519v0h-3.5v0l.877,1.519Zm0,.48h-1.754l-.877,1.518v0l.877,1.519h1.754l.877-1.519v0ZM85.445,21.015,84.568,19.5h-.877v3.037h.877Zm.407-.24h1.754l.877-1.519v0l-.877-1.518H85.852l-.877,1.518v0ZM89.766,19.5h-.877l-.877,1.519.877,1.518h1.754l.877-1.518L90.643,19.5Zm2.161,1.279h1.753l.877-1.519v0l-.877-1.518H91.926l-.877,1.518v0ZM95.84,19.5h-.877l-.877,1.519.877,1.518h1.754l.877-1.518L96.717,19.5ZM98,20.775h1.754l.877-1.519v0l-.877-1.518H98l-.877,1.518v0Zm3.914-1.279h-.877l-.877,1.519.877,1.518h1.754l.877-1.518-.877-1.519Zm2.161,1.279h1.753l.877-1.519v0l-.877-1.518h-1.753l-.877,1.518,0,0,0,0Zm3.914-1.279h-.877l-.877,1.519.877,1.518h1.754l.877-1.518-.877-1.519Zm2.161,1.279H111.9l.877-1.519v0l-.877-1.518H110.15l-.877,1.518v0Zm3.914-1.279h-.877l-.877,1.519.877,1.518h1.754l.877-1.518-.877-1.519Zm2.161,1.279h1.753l.877-1.519v0l-.877-1.518h-1.753l-.877,1.518v0Zm3.914-1.279h-.877l-.877,1.519.877,1.518h1.754l.877-1.518-.877-1.519Zm2.16,1.279h1.754l.877-1.519v0l-.877-1.518H122.3l-.877,1.518v0Zm3.914-1.279h-.877l-.877,1.519.877,1.518h1.754l.877-1.518L127.09,19.5Zm2.161,1.279h1.754L131,19.257v0l-.877-1.518h-1.754l-.877,1.518v0Zm3.914-1.279h-.877l-.877,1.519.877,1.518h1.754l.877-1.518-.877-1.519Zm2.161,1.279H136.2l.877-1.519v0l-.877-1.518h-1.753l-.877,1.518v0Zm4.791-1.279h-1.754l-.877,1.519.877,1.518h1.754l.877-1.518Zm3.037,1.758h-1.754l-.877,1.518v0l.877,1.519h1.754l.877-1.519v0ZM85.445,24.536l-.877-1.519h-.877v3.037h.877Zm.407-.24h1.754l.877-1.519v0l-.877-1.518H85.852l-.877,1.518v0Zm3.914-1.279h-.877l-.877,1.519.877,1.518h1.754l.877-1.518-.877-1.519ZM91.926,24.3h1.753l.877-1.519v0l-.877-1.518H91.926l-.877,1.518v0Zm1.753.48H91.926l-.877,1.518v0l.877,1.519h1.753l.877-1.519v0Zm2.161-1.758h-.877l-.877,1.519.877,1.518h1.754l.877-1.518-.877-1.519ZM98,24.3h1.754l.877-1.519v0l-.877-1.518H98l-.877,1.518v0Zm1.754.48H98l-.877,1.518v0L98,27.818h1.754l.877-1.519v0Zm2.161-1.758h-.877l-.877,1.519.877,1.518h1.754l.877-1.518-.877-1.519Zm2.161,1.279h1.753l.877-1.519v0l-.877-1.518h-1.753l-.877,1.518,0,0,0,0Zm1.753.48h-1.753l-.877,1.518,0,0,0,0,.877,1.519h1.753l.877-1.519v0Zm2.161-1.758h-.877l-.877,1.519.877,1.518h1.754l.877-1.518-.877-1.519ZM110.15,24.3H111.9l.877-1.519v0l-.877-1.518H110.15l-.877,1.518v0Zm1.754.48H110.15l-.877,1.518v0l.877,1.519H111.9l.877-1.519v0Zm2.161-1.758h-.877l-.877,1.519.877,1.518h1.754l.877-1.518-.877-1.519Zm2.161,1.279h1.753l.877-1.519v0l-.877-1.518h-1.753l-.877,1.518v0Zm1.753.48h-1.753l-.877,1.518v0l.877,1.519h1.753l.877-1.519v0Zm2.161-1.758h-.877l-.877,1.519.877,1.518h1.754l.877-1.518-.877-1.519ZM122.3,24.3h1.754l.877-1.519v0l-.877-1.518H122.3l-.877,1.518v0Zm1.754.48H122.3l-.877,1.518v0l.877,1.519h1.754l.877-1.519v0Zm2.161-1.758h-.877l-.877,1.519.877,1.518h1.754l.877-1.518-.877-1.519Zm2.161,1.279h1.754L131,22.778v0l-.877-1.518h-1.754l-.877,1.518v0Zm1.754.48h-1.754l-.877,1.518v0l.877,1.519h1.754L131,26.3v0Zm2.161-1.758h-.877l-.877,1.519.877,1.518h1.754l.877-1.518-.877-1.519Zm2.161,1.279H136.2l.877-1.519v0l-.877-1.518h-1.753l-.877,1.518v0Zm1.753.48h-1.753l-.877,1.518v0l.877,1.519H136.2l.877-1.519v0Zm3.038-1.758h-1.754l-.877,1.519.877,1.518h1.754l.877-1.518Zm3.037,1.758h-1.754l-.877,1.518v0l.877,1.519h1.754l.877-1.519v0ZM85.445,28.058l-.877-1.519h-.877v3.037h.877Zm.407-.24h1.754l.877-1.519v0l-.877-1.518H85.852l-.877,1.518v0Zm3.037,1.758h1.754l.877-1.518-.877-1.519H88.888l-.877,1.519ZM93.679,28.3H91.926l-.877,1.518v0l.877,1.519h1.753l.877-1.519v0Zm2.161,1.278h.877l.877-1.518-.877-1.519H94.963l-.877,1.519.877,1.518ZM99.754,28.3H98l-.877,1.518v0L98,31.339h1.754l.877-1.519v0Zm2.161,1.278h.877l.877-1.518-.877-1.519h-1.754l-.877,1.519.877,1.518Zm3.914-1.278h-1.753l-.877,1.518,0,0,0,0,.877,1.519h1.753l.877-1.519v0Zm2.161,1.278h.877l.877-1.518-.877-1.519h-1.754l-.877,1.519.877,1.518ZM111.9,28.3H110.15l-.877,1.518v0l.877,1.519H111.9l.877-1.519v0Zm2.161,1.278h.877l.877-1.518-.877-1.519h-1.754l-.877,1.519.877,1.518Zm3.914-1.278h-1.753l-.877,1.518v0l.877,1.519h1.753l.877-1.519v0Zm2.161,1.278h.877l.877-1.518-.877-1.519h-1.754l-.877,1.519.877,1.518Zm3.914-1.278H122.3l-.877,1.518v0l.877,1.519h1.754l.877-1.519v0Zm2.161,1.278h.877l.877-1.518-.877-1.519h-1.754l-.877,1.519.877,1.518Zm3.914-1.278h-1.754l-.877,1.518v0l.877,1.519h1.754L131,29.821v0Zm2.161,1.278h.877l.877-1.518-.877-1.519H131.41l-.877,1.519.877,1.518ZM136.2,28.3h-1.753l-.877,1.518v0l.877,1.519H136.2l.877-1.519v0Zm2.161,1.278h.877l.877-1.518-.877-1.519h-1.754l-.877,1.519.877,1.518Zm3.914-1.278h-1.754l-.877,1.518v0l.877,1.519h1.754l.877-1.519v0ZM85.445,31.579l-.877-1.519h-.877V33.1h.877Zm.407-.24h1.754l.877-1.519v0L87.605,28.3H85.852l-.877,1.518v0Zm1.754.48H85.852l-.877,1.518v.005l.877,1.518h1.754l.877-1.518v-.005ZM89.766,33.1h.877l.877-1.519-.877-1.519H88.888l-.877,1.519.877,1.519Zm3.914-1.279H91.926l-.877,1.518v.005l.877,1.518h1.753l.877-1.518v-.005ZM95.84,33.1h.877l.877-1.519-.877-1.519H94.963l-.877,1.519.877,1.519Zm3.914-1.279H98l-.877,1.518v.005L98,34.86h1.754l.877-1.518v-.005Zm2.161,1.279h.877l.877-1.519-.877-1.519h-1.754l-.877,1.519.877,1.519Zm3.914-1.279h-1.753l-.877,1.518,0,0,0,0,.877,1.518h1.753l.877-1.518v-.005Zm2.161,1.279h.877l.877-1.519-.877-1.519h-1.754l-.877,1.519.877,1.519Zm3.914-1.279H110.15l-.877,1.518v.005l.877,1.518H111.9l.877-1.518v-.005Zm2.161,1.279h.877l.877-1.519-.877-1.519h-1.754l-.877,1.519.877,1.519Zm3.914-1.279h-1.753l-.877,1.518v.005l.877,1.518h1.753l.877-1.518v-.005Zm2.161,1.279h.877l.877-1.519-.877-1.519h-1.754l-.877,1.519.877,1.519Zm3.914-1.279H122.3l-.877,1.518v.005l.877,1.518h1.754l.877-1.518v-.005Zm2.161,1.279h.877l.877-1.519-.877-1.519h-1.754l-.877,1.519.877,1.519Zm3.914-1.279h-1.754l-.877,1.518v.005l.877,1.518h1.754L131,33.342v-.005Zm2.161,1.279h.877l.877-1.519-.877-1.519H131.41l-.877,1.519.877,1.519Zm3.914-1.279h-1.753l-.877,1.518v.005l.877,1.518H136.2l.877-1.518v-.005Zm2.161,1.279h.877l.877-1.519-.877-1.519h-1.754l-.877,1.519.877,1.519Zm3.914-1.279h-1.754l-.877,1.518v.005l.877,1.518h1.754l.877-1.518v-.005ZM84.568,33.582h-.877v3.037h.877l.877-1.519Zm1.284,1.758-.877,1.518v0h3.5v0l-.877-1.518Zm4.791-1.758H88.888L88.012,35.1l.877,1.519h1.754l.877-1.519Zm1.284,1.758-.877,1.518v0h3.5v0l-.877-1.518Zm4.791-1.758H94.963L94.087,35.1l.877,1.519h1.754l.877-1.519ZM98,35.34l-.877,1.518v0h3.5v0l-.877-1.518Zm4.791-1.758h-1.754l-.877,1.519.877,1.519h1.754l.877-1.519Zm1.284,1.758-.877,1.518,0,0h3.5v0l-.877-1.518Zm4.791-1.758h-1.754l-.877,1.519.877,1.519h1.754l.877-1.519Zm1.283,1.758-.877,1.518v0h3.5v0L111.9,35.34Zm4.791-1.758h-1.754L112.31,35.1l.877,1.519h1.754l.877-1.519Zm1.284,1.758-.877,1.518v0h3.5v0l-.877-1.518Zm4.791-1.758h-1.754l-.877,1.519.877,1.519h1.754l.877-1.519ZM122.3,35.34l-.877,1.518v0h3.5v0l-.877-1.518Zm4.791-1.758h-1.754l-.877,1.519.877,1.519h1.754l.877-1.519Zm1.284,1.758-.877,1.518v0H131v0l-.877-1.518Zm4.791-1.758H131.41l-.877,1.519.877,1.519h1.754l.877-1.519Zm1.284,1.758-.877,1.518v0h3.5v0L136.2,35.34Zm4.791-1.758h-1.754l-.877,1.519.877,1.519h1.754l.877-1.519Zm1.283,1.758-.877,1.518v0h3.5v0l-.877-1.518Zm3.914-12.807h.877l.877-1.518-.877-1.519h-1.754l-.877,1.519.877,1.518Zm0,3.521h.877l.877-1.518-.877-1.519h-1.754l-.877,1.519.877,1.518Zm0,3.521h.877l.877-1.518-.877-1.519h-1.754l-.877,1.519.877,1.518Zm0,3.522h.877l.877-1.519-.877-1.519h-1.754l-.877,1.519.877,1.519Zm0-14.086h.877l.877-1.518-.877-1.519h-1.754l-.877,1.519.877,1.518Zm3.914-1.758.877-1.519,0,0h-3.5v0l.877,1.519Zm1.284,1.758h1.754l.877-1.518-.877-1.519h-1.754l-.877,1.519Zm4.791-1.758.877-1.519v0h-3.5v0l.877,1.519Zm1.283,1.758h1.754l.877-1.518-.877-1.519h-1.754l-.877,1.519Zm4.791-1.758.877-1.519v0h-3.5v0l.877,1.519Zm1.284,1.758h1.754l.877-1.518-.877-1.519h-1.754l-.877,1.519Zm4.791-1.758.877-1.519v0h-3.5v0l.877,1.519Zm1.284,1.758h1.754l.877-1.518-.877-1.519h-1.754l-.877,1.519Zm4.791-1.758.877-1.519v0h-3.5v0l.877,1.519Zm0,.48H170.9l-.877,1.518v0l.877,1.519h1.753l.877-1.519v0Zm1.283-1.758-.877,1.519.877,1.518h.877V15.975Zm-27.335,4.8h1.753l.877-1.519,0,0,0,0-.877-1.518H146.6l-.877,1.518v0Zm3.914-1.279h-.877l-.877,1.519.877,1.518h1.754l.877-1.518-.877-1.519Zm2.161,1.279h1.753l.877-1.519v0l-.877-1.518h-1.753l-.877,1.518v0Zm3.914-1.279h-.877l-.877,1.519.877,1.518h1.754l.877-1.518-.877-1.519Zm2.161,1.279H160.5l.877-1.519v0l-.877-1.518h-1.753l-.877,1.518v0ZM162.66,19.5h-.877l-.877,1.519.877,1.518h1.754l.877-1.518-.877-1.519Zm2.161,1.279h1.753l.877-1.519v0l-.877-1.518h-1.753l-.877,1.518v0Zm4.791-1.279h-1.754l-.877,1.519.877,1.518h1.754l.877-1.518Zm3.037,1.758H170.9l-.877,1.518v0L170.9,24.3h1.753l.877-1.519v0Zm.407-.24.877,1.518h.877V19.5h-.877ZM146.6,24.3h1.753l.877-1.519,0,0,0,0-.877-1.518H146.6l-.877,1.518v0Zm3.914-1.279h-.877l-.877,1.519.877,1.518h1.754l.877-1.518-.877-1.519Zm2.161,1.279h1.753l.877-1.519v0l-.877-1.518h-1.753l-.877,1.518v0Zm1.753.48h-1.753l-.877,1.518v0l.877,1.519h1.753L155.3,26.3v0Zm2.161-1.758h-.877l-.877,1.519.877,1.518h1.754l.877-1.518-.877-1.519Zm2.161,1.279H160.5l.877-1.519v0l-.877-1.518h-1.753l-.877,1.518v0Zm1.753.48h-1.753l-.877,1.518v0l.877,1.519H160.5l.877-1.519v0Zm2.161-1.758h-.877l-.877,1.519.877,1.518h1.754l.877-1.518-.877-1.519Zm2.161,1.279h1.753l.877-1.519v0l-.877-1.518h-1.753l-.877,1.518v0Zm1.753.48h-1.753l-.877,1.518v0l.877,1.519h1.753l.877-1.519v0Zm3.038-1.758h-1.754l-.877,1.519.877,1.518h1.754l.877-1.518Zm3.037,1.758H170.9l-.877,1.518v0l.877,1.519h1.753l.877-1.519v0Zm.407-.24.877,1.518h.877V23.018h-.877ZM146.6,27.818h1.753l.877-1.519,0,0,0,0-.877-1.518H146.6l-.877,1.518v0Zm3.037,1.758h1.754l.877-1.518-.877-1.519h-1.754l-.877,1.519Zm4.791-1.278h-1.753l-.877,1.518v0l.877,1.519h1.753l.877-1.519v0Zm2.161,1.278h.877l.877-1.518-.877-1.519h-1.754l-.877,1.519.877,1.518ZM160.5,28.3h-1.753l-.877,1.518v0l.877,1.519H160.5l.877-1.519v0Zm2.161,1.278h.877l.877-1.518-.877-1.519h-1.754l-.877,1.519.877,1.518Zm3.914-1.278h-1.753l-.877,1.518v0l.877,1.519h1.753l.877-1.519v0Zm2.161,1.278h.877l.877-1.518-.877-1.519h-1.754l-.877,1.519.877,1.518Zm3.914-1.278H170.9l-.877,1.518v0l.877,1.519h1.753l.877-1.519v0Zm.407-.24.877,1.518h.877V26.539h-.877ZM146.6,31.339h1.753l.877-1.519,0,0,0,0L148.35,28.3H146.6l-.877,1.518v0Zm1.753.48H146.6l-.877,1.518v.005l.877,1.518h1.753l.877-1.518,0,0,0,0Zm2.161,1.279h.877l.877-1.519-.877-1.519h-1.754l-.877,1.519.877,1.519Zm3.914-1.279h-1.753l-.877,1.518v.005l.877,1.518h1.753l.877-1.518v-.005Zm2.161,1.279h.877l.877-1.519-.877-1.519h-1.754l-.877,1.519.877,1.519Zm3.914-1.279h-1.753l-.877,1.518v.005l.877,1.518H160.5l.877-1.518v-.005ZM162.66,33.1h.877l.877-1.519-.877-1.519h-1.754l-.877,1.519.877,1.519Zm3.914-1.279h-1.753l-.877,1.518v.005l.877,1.518h1.753l.877-1.518v-.005Zm2.161,1.279h.877l.877-1.519-.877-1.519h-1.754l-.877,1.519.877,1.519Zm3.914-1.279H170.9l-.877,1.518v.005l.877,1.518h1.753l.877-1.518v-.005Zm.407-.24.877,1.519h.877V30.06h-.877Zm-27.742,2h-1.754l-.877,1.519.877,1.519h1.754l.877-1.519ZM146.6,35.34l-.877,1.518v0h3.5l0,0-.877-1.518Zm4.791-1.758h-1.754l-.877,1.519.877,1.519h1.754l.877-1.519Zm1.283,1.758-.877,1.518v0h3.5v0l-.877-1.518Zm4.791-1.758h-1.754l-.877,1.519.877,1.519h1.754l.877-1.519Zm1.284,1.758-.877,1.518v0h3.5v0L160.5,35.34Zm4.791-1.758h-1.754l-.877,1.519.877,1.519h1.754l.877-1.519Zm1.284,1.758-.877,1.518v0h3.5v0l-.877-1.518Zm4.791-1.758h-1.754l-.877,1.519.877,1.519h1.754l.877-1.519ZM170.9,35.34l-.877,1.518v0h3.5v0l-.877-1.518Zm2.16-.24.877,1.519h.877V33.582h-.877Z" transform="translate(-83.691 -15.733)" fill="#08162b"/>
                </g>
              </g>
            </g>
          </g>
        </g>
        <g id="Grupo_2503" data-name="Grupo 2503">
          <g id="Grupo_2502" data-name="Grupo 2502" clip-path="url(#clip-path)">
            <g id="Grupo_2480" data-name="Grupo 2480" transform="translate(29.158 6.929)" style="mix-blend-mode: multiply;isolation: isolate">
              <g id="Grupo_2479" data-name="Grupo 2479">
                <g id="Grupo_2478" data-name="Grupo 2478" clip-path="url(#clip-path-8)">
                  <rect id="Retângulo_9840" data-name="Retângulo 9840" width="91.116" height="18.163" rx="4.999" transform="translate(0.109 0.109)" fill="none" stroke="#08162b" stroke-width="0.625"/>
                </g>
              </g>
            </g>
            <rect id="Retângulo_9842" data-name="Retângulo 9842" width="130.771" height="4.852" transform="translate(21.385 67.928)" fill="#030912"/>
            <path id="Caminho_2172" data-name="Caminho 2172" d="M184,136.194H43.236a2.724,2.724,0,0,1-2.724-2.725V106.68a2.724,2.724,0,0,1,2.724-2.725H184a2.725,2.725,0,0,1,2.725,2.725v26.79A2.725,2.725,0,0,1,184,136.194" transform="translate(-26.392 -67.723)" fill="#08162b"/>
            <g id="Grupo_2483" data-name="Grupo 2483" transform="translate(18.585 42.589)" style="mix-blend-mode: multiply;isolation: isolate">
              <g id="Grupo_2482" data-name="Grupo 2482">
                <g id="Grupo_2481" data-name="Grupo 2481" clip-path="url(#clip-path-2)">
                  <path id="Caminho_2173" data-name="Caminho 2173" d="M55.82,142.627h0a2.5,2.5,0,0,1-2.5-2.5V124.692a2.5,2.5,0,1,1,4.995,0V140.13a2.5,2.5,0,0,1-2.5,2.5" transform="translate(-53.323 -122.194)" fill="#08162b"/>
                </g>
              </g>
            </g>
            <path id="Caminho_2174" data-name="Caminho 2174" d="M54.518,140.021h0a2.5,2.5,0,0,1-2.5-2.5V122.086a2.5,2.5,0,1,1,4.995,0v15.438a2.5,2.5,0,0,1-2.5,2.5" transform="translate(-33.89 -77.907)" fill="#3e5570"/>
            <path id="Caminho_2175" data-name="Caminho 2175" d="M52.474,137.524V122.086a2.5,2.5,0,0,1,2.27-2.486c-.075-.007-.151-.011-.227-.011a2.5,2.5,0,0,0-2.5,2.5v15.438a2.5,2.5,0,0,0,2.5,2.5c.077,0,.152,0,.227-.012a2.5,2.5,0,0,1-2.27-2.486" transform="translate(-33.889 -77.908)" fill="#6b8199"/>
            <g id="Grupo_2486" data-name="Grupo 2486" transform="translate(150.869 42.589)" style="mix-blend-mode: multiply;isolation: isolate">
              <g id="Grupo_2485" data-name="Grupo 2485">
                <g id="Grupo_2484" data-name="Grupo 2484" clip-path="url(#clip-path-2)">
                  <path id="Caminho_2176" data-name="Caminho 2176" d="M435.359,142.627h0a2.5,2.5,0,0,0,2.5-2.5V124.692a2.5,2.5,0,1,0-4.995,0V140.13a2.5,2.5,0,0,0,2.5,2.5" transform="translate(-432.862 -122.194)" fill="#08162b"/>
                </g>
              </g>
            </g>
            <path id="Caminho_2177" data-name="Caminho 2177" d="M436.662,140.021h0a2.5,2.5,0,0,0,2.5-2.5V122.086a2.5,2.5,0,1,0-4.995,0v15.438a2.5,2.5,0,0,0,2.5,2.5" transform="translate(-282.842 -77.907)" fill="#3e5570"/>
            <path id="Caminho_2178" data-name="Caminho 2178" d="M442.948,137.524V122.086a2.5,2.5,0,0,0-2.27-2.486c.075-.007.151-.011.227-.011a2.5,2.5,0,0,1,2.5,2.5v15.438a2.5,2.5,0,0,1-2.5,2.5c-.077,0-.152,0-.227-.012a2.5,2.5,0,0,0,2.27-2.486" transform="translate(-287.085 -77.908)" fill="#6b8199"/>
            <path id="Caminho_2179" data-name="Caminho 2179" d="M409.608,144.346h4.668a.335.335,0,0,0,.291-.5l-2.334-4.117a.335.335,0,0,0-.583,0l-2.333,4.117a.335.335,0,0,0,.291.5" transform="translate(-266.625 -90.917)" fill="#6bba21"/>
            <g id="Grupo_2489" data-name="Grupo 2489" transform="translate(124.703 43.27)" style="mix-blend-mode: multiply;isolation: isolate">
              <g id="Grupo_2488" data-name="Grupo 2488">
                <g id="Grupo_2487" data-name="Grupo 2487" clip-path="url(#clip-path-4)">
                  <rect id="Retângulo_9845" data-name="Retângulo 9845" width="2.725" height="18.163" transform="translate(0)" fill="#08162b"/>
                </g>
              </g>
            </g>
            <g id="Grupo_2492" data-name="Grupo 2492" transform="translate(128.79 43.27)" style="mix-blend-mode: multiply;isolation: isolate">
              <g id="Grupo_2491" data-name="Grupo 2491">
                <g id="Grupo_2490" data-name="Grupo 2490" clip-path="url(#clip-path-4)">
                  <rect id="Retângulo_9847" data-name="Retângulo 9847" width="2.725" height="18.163" transform="translate(0)" fill="#08162b"/>
                </g>
              </g>
            </g>
            <g id="Grupo_2495" data-name="Grupo 2495" transform="translate(132.877 43.27)" style="mix-blend-mode: multiply;isolation: isolate">
              <g id="Grupo_2494" data-name="Grupo 2494">
                <g id="Grupo_2493" data-name="Grupo 2493" clip-path="url(#clip-path-4)">
                  <rect id="Retângulo_9849" data-name="Retângulo 9849" width="2.725" height="18.163" transform="translate(0)" fill="#08162b"/>
                </g>
              </g>
            </g>
            <g id="Grupo_2498" data-name="Grupo 2498" transform="translate(136.963 43.27)" style="mix-blend-mode: multiply;isolation: isolate">
              <g id="Grupo_2497" data-name="Grupo 2497">
                <g id="Grupo_2496" data-name="Grupo 2496" clip-path="url(#clip-path-4)">
                  <rect id="Retângulo_9851" data-name="Retângulo 9851" width="2.725" height="18.163" transform="translate(0)" fill="#08162b"/>
                </g>
              </g>
            </g>
            <g id="Grupo_2501" data-name="Grupo 2501" transform="translate(29.158 43.162)" style="mix-blend-mode: multiply;isolation: isolate">
              <g id="Grupo_2500" data-name="Grupo 2500">
                <g id="Grupo_2499" data-name="Grupo 2499" clip-path="url(#clip-path-19)">
                  <rect id="Retângulo_9853" data-name="Retângulo 9853" width="91.116" height="18.163" rx="4.999" transform="translate(0.109 0.109)" fill="none" stroke="#08162b" stroke-width="0.625"/>
                </g>
              </g>
            </g>
          </g>
        </g>
        <g id="Grupo_2508" data-name="Grupo 2508" transform="translate(29.267 43.27)">
          <g id="Grupo_2507" data-name="Grupo 2507" clip-path="url(#clip-path-20)">
            <g id="Grupo_2506" data-name="Grupo 2506" transform="translate(-0.097 -1.554)" style="mix-blend-mode: multiply;isolation: isolate">
              <g id="Grupo_2505" data-name="Grupo 2505">
                <g id="Grupo_2504" data-name="Grupo 2504" clip-path="url(#clip-path-10)">
                  <path id="Caminho_2180" data-name="Caminho 2180" d="M84.568,122.967h-.877V119.93h.877l.877,1.519Zm3.037-1.758.877-1.519v0h-3.5v0l.877,1.519Zm1.283,1.758h1.754l.877-1.518-.877-1.519H88.888l-.877,1.519Zm4.791-1.758.877-1.519v0h-3.5v0l.877,1.519Zm1.284,1.758h1.754l.877-1.518-.877-1.519H94.963l-.877,1.519Zm4.791-1.758.877-1.519v0h-3.5v0L98,121.209Zm1.283,1.758h1.754l.877-1.518-.877-1.519h-1.754l-.877,1.519Zm4.791-1.758.877-1.519v0h-3.5l0,0,.877,1.519Zm1.284,1.758h1.754l.877-1.518-.877-1.519h-1.754l-.877,1.519Zm4.791-1.758.877-1.519v0h-3.5v0l.877,1.519Zm1.284,1.758h1.754l.877-1.518-.877-1.519h-1.754l-.877,1.519Zm4.791-1.758.877-1.519v0h-3.5v0l.877,1.519Zm1.284,1.758h1.754l.877-1.518-.877-1.519h-1.754l-.877,1.519Zm4.791-1.758.877-1.519v0h-3.5v0l.877,1.519Zm1.284,1.758h1.754l.877-1.518-.877-1.519h-1.754l-.877,1.519Zm4.791-1.758L131,119.69v0h-3.5v0l.877,1.519Zm1.283,1.758h1.754l.877-1.518-.877-1.519H131.41l-.877,1.519Zm4.791-1.758.877-1.519v0h-3.5v0l.877,1.519Zm1.284,1.758h1.754l.877-1.518-.877-1.519h-1.754l-.877,1.519Zm4.791-1.758.877-1.519v0h-3.5v0l.877,1.519Zm0,.48h-1.754l-.877,1.518v0l.877,1.519h1.754l.877-1.519v0ZM85.445,124.97l-.877-1.519h-.877v3.037h.877Zm.407-.24h1.754l.877-1.519v0l-.877-1.518H85.852l-.877,1.518v0Zm3.914-1.279h-.877l-.877,1.519.877,1.518h1.754l.877-1.518-.877-1.519Zm2.161,1.279h1.753l.877-1.519v0l-.877-1.518H91.926l-.877,1.518v0Zm3.914-1.279h-.877l-.877,1.519.877,1.518h1.754l.877-1.518-.877-1.519ZM98,124.73h1.754l.877-1.519v0l-.877-1.518H98l-.877,1.518v0Zm3.914-1.279h-.877l-.877,1.519.877,1.518h1.754l.877-1.518-.877-1.519Zm2.161,1.279h1.753l.877-1.519v0l-.877-1.518h-1.753l-.877,1.518,0,0,0,0Zm3.914-1.279h-.877l-.877,1.519.877,1.518h1.754l.877-1.518-.877-1.519Zm2.161,1.279H111.9l.877-1.519v0l-.877-1.518H110.15l-.877,1.518v0Zm3.914-1.279h-.877l-.877,1.519.877,1.518h1.754l.877-1.518-.877-1.519Zm2.161,1.279h1.753l.877-1.519v0l-.877-1.518h-1.753l-.877,1.518v0Zm3.914-1.279h-.877l-.877,1.519.877,1.518h1.754l.877-1.518-.877-1.519Zm2.16,1.279h1.754l.877-1.519v0l-.877-1.518H122.3l-.877,1.518v0Zm3.914-1.279h-.877l-.877,1.519.877,1.518h1.754l.877-1.518-.877-1.519Zm2.161,1.279h1.754l.877-1.519v0l-.877-1.518h-1.754l-.877,1.518v0Zm3.914-1.279h-.877l-.877,1.519.877,1.518h1.754l.877-1.518-.877-1.519Zm2.161,1.279H136.2l.877-1.519v0l-.877-1.518h-1.753l-.877,1.518v0Zm4.791-1.279h-1.754l-.877,1.519.877,1.518h1.754l.877-1.518Zm3.037,1.758h-1.754l-.877,1.518v0l.877,1.519h1.754l.877-1.519v0Zm-56.831,3.281-.877-1.519h-.877v3.037h.877Zm.407-.24h1.754l.877-1.519v0l-.877-1.518H85.852l-.877,1.518v0Zm3.914-1.279h-.877l-.877,1.519.877,1.518h1.754l.877-1.518-.877-1.519Zm2.161,1.279h1.753l.877-1.519v0l-.877-1.518H91.926l-.877,1.518v0Zm1.753.48H91.926l-.877,1.518v0l.877,1.519h1.753l.877-1.519v0Zm2.161-1.758h-.877l-.877,1.519.877,1.518h1.754l.877-1.518-.877-1.519ZM98,128.252h1.754l.877-1.519v0l-.877-1.518H98l-.877,1.518v0Zm1.754.48H98l-.877,1.518v0L98,131.773h1.754l.877-1.519v0Zm2.161-1.758h-.877l-.877,1.519.877,1.518h1.754l.877-1.518-.877-1.519Zm2.161,1.279h1.753l.877-1.519v0l-.877-1.518h-1.753l-.877,1.518,0,0,0,0Zm1.753.48h-1.753l-.877,1.518,0,0,0,0,.877,1.519h1.753l.877-1.519v0Zm2.161-1.758h-.877l-.877,1.519.877,1.518h1.754l.877-1.518-.877-1.519Zm2.161,1.279H111.9l.877-1.519v0l-.877-1.518H110.15l-.877,1.518v0Zm1.754.48H110.15l-.877,1.518v0l.877,1.519H111.9l.877-1.519v0Zm2.161-1.758h-.877l-.877,1.519.877,1.518h1.754l.877-1.518-.877-1.519Zm2.161,1.279h1.753l.877-1.519v0l-.877-1.518h-1.753l-.877,1.518v0Zm1.753.48h-1.753l-.877,1.518v0l.877,1.519h1.753l.877-1.519v0Zm2.161-1.758h-.877l-.877,1.519.877,1.518h1.754l.877-1.518-.877-1.519Zm2.16,1.279h1.754l.877-1.519v0l-.877-1.518H122.3l-.877,1.518v0Zm1.754.48H122.3l-.877,1.518v0l.877,1.519h1.754l.877-1.519v0Zm2.161-1.758h-.877l-.877,1.519.877,1.518h1.754l.877-1.518-.877-1.519Zm2.161,1.279h1.754l.877-1.519v0l-.877-1.518h-1.754l-.877,1.518v0Zm1.754.48h-1.754l-.877,1.518v0l.877,1.519h1.754l.877-1.519v0Zm2.161-1.758h-.877l-.877,1.519.877,1.518h1.754l.877-1.518-.877-1.519Zm2.161,1.279H136.2l.877-1.519v0l-.877-1.518h-1.753l-.877,1.518v0Zm1.753.48h-1.753l-.877,1.518v0l.877,1.519H136.2l.877-1.519v0Zm3.038-1.758h-1.754l-.877,1.519.877,1.518h1.754l.877-1.518Zm3.037,1.758h-1.754l-.877,1.518v0l.877,1.519h1.754l.877-1.519v0Zm-56.831,3.281-.877-1.519h-.877v3.037h.877Zm.407-.24h1.754l.877-1.519v0l-.877-1.518H85.852l-.877,1.518v0Zm3.037,1.758h1.754l.877-1.518-.877-1.519H88.888l-.877,1.519Zm4.791-1.278H91.926l-.877,1.518v0l.877,1.519h1.753l.877-1.519v0Zm2.161,1.278h.877l.877-1.518-.877-1.519H94.963l-.877,1.519.877,1.518Zm3.914-1.278H98l-.877,1.518v0L98,135.294h1.754l.877-1.519v0Zm2.161,1.278h.877l.877-1.518-.877-1.519h-1.754l-.877,1.519.877,1.518Zm3.914-1.278h-1.753l-.877,1.518,0,0,0,0,.877,1.519h1.753l.877-1.519v0Zm2.161,1.278h.877l.877-1.518-.877-1.519h-1.754l-.877,1.519.877,1.518Zm3.914-1.278H110.15l-.877,1.518v0l.877,1.519H111.9l.877-1.519v0Zm2.161,1.278h.877l.877-1.518-.877-1.519h-1.754l-.877,1.519.877,1.518Zm3.914-1.278h-1.753l-.877,1.518v0l.877,1.519h1.753l.877-1.519v0Zm2.161,1.278h.877l.877-1.518-.877-1.519h-1.754l-.877,1.519.877,1.518Zm3.914-1.278H122.3l-.877,1.518v0l.877,1.519h1.754l.877-1.519v0Zm2.161,1.278h.877l.877-1.518-.877-1.519h-1.754l-.877,1.519.877,1.518Zm3.914-1.278h-1.754l-.877,1.518v0l.877,1.519h1.754l.877-1.519v0Zm2.161,1.278h.877l.877-1.518-.877-1.519H131.41l-.877,1.519.877,1.518Zm3.914-1.278h-1.753l-.877,1.518v0l.877,1.519H136.2l.877-1.519v0Zm2.161,1.278h.877l.877-1.518-.877-1.519h-1.754l-.877,1.519.877,1.518Zm3.914-1.278h-1.754l-.877,1.518v0l.877,1.519h1.754l.877-1.519v0Zm-56.831,3.282-.877-1.519h-.877v3.037h.877Zm.407-.24h1.754l.877-1.519v0l-.877-1.518H85.852l-.877,1.518v0Zm1.754.48H85.852l-.877,1.518v.005l.877,1.518h1.754l.877-1.518v-.005Zm2.161,1.279h.877l.877-1.519-.877-1.519H88.888l-.877,1.519.877,1.519Zm3.914-1.279H91.926l-.877,1.518v.005l.877,1.518h1.753l.877-1.518v-.005Zm2.161,1.279h.877l.877-1.519-.877-1.519H94.963l-.877,1.519.877,1.519Zm3.914-1.279H98l-.877,1.518v.005L98,138.815h1.754l.877-1.518v-.005Zm2.161,1.279h.877l.877-1.519-.877-1.519h-1.754l-.877,1.519.877,1.519Zm3.914-1.279h-1.753l-.877,1.518,0,0,0,0,.877,1.518h1.753l.877-1.518v-.005Zm2.161,1.279h.877l.877-1.519-.877-1.519h-1.754l-.877,1.519.877,1.519Zm3.914-1.279H110.15l-.877,1.518v.005l.877,1.518H111.9l.877-1.518v-.005Zm2.161,1.279h.877l.877-1.519-.877-1.519h-1.754l-.877,1.519.877,1.519Zm3.914-1.279h-1.753l-.877,1.518v.005l.877,1.518h1.753l.877-1.518v-.005Zm2.161,1.279h.877l.877-1.519-.877-1.519h-1.754l-.877,1.519.877,1.519Zm3.914-1.279H122.3l-.877,1.518v.005l.877,1.518h1.754l.877-1.518v-.005Zm2.161,1.279h.877l.877-1.519-.877-1.519h-1.754l-.877,1.519.877,1.519Zm3.914-1.279h-1.754l-.877,1.518v.005l.877,1.518h1.754L131,137.3v-.005Zm2.161,1.279h.877l.877-1.519-.877-1.519H131.41l-.877,1.519.877,1.519Zm3.914-1.279h-1.753l-.877,1.518v.005l.877,1.518H136.2l.877-1.518v-.005Zm2.161,1.279h.877l.877-1.519-.877-1.519h-1.754l-.877,1.519.877,1.519Zm3.914-1.279h-1.754l-.877,1.518v.005l.877,1.518h1.754l.877-1.518v-.005Zm-57.708,1.763h-.877v3.037h.877l.877-1.519Zm1.284,1.758-.877,1.518v0h3.5v0l-.877-1.518Zm4.791-1.758H88.888l-.877,1.519.877,1.519h1.754l.877-1.519Zm1.284,1.758-.877,1.518v0h3.5v0l-.877-1.518Zm4.791-1.758H94.963l-.877,1.519.877,1.519h1.754l.877-1.519ZM98,139.3l-.877,1.518v0h3.5v0l-.877-1.518Zm4.791-1.758h-1.754l-.877,1.519.877,1.519h1.754l.877-1.519Zm1.284,1.758-.877,1.518,0,0h3.5v0l-.877-1.518Zm4.791-1.758h-1.754l-.877,1.519.877,1.519h1.754l.877-1.519Zm1.283,1.758-.877,1.518v0h3.5v0L111.9,139.3Zm4.791-1.758h-1.754l-.877,1.519.877,1.519h1.754l.877-1.519Zm1.284,1.758-.877,1.518v0h3.5v0l-.877-1.518Zm4.791-1.758h-1.754l-.877,1.519.877,1.519h1.754l.877-1.519ZM122.3,139.3l-.877,1.518v0h3.5v0l-.877-1.518Zm4.791-1.758h-1.754l-.877,1.519.877,1.519h1.754l.877-1.519Zm1.284,1.758-.877,1.518v0H131v0l-.877-1.518Zm4.791-1.758H131.41l-.877,1.519.877,1.519h1.754l.877-1.519Zm1.284,1.758-.877,1.518v0h3.5v0L136.2,139.3Zm4.791-1.758h-1.754l-.877,1.519.877,1.519h1.754l.877-1.519Zm1.283,1.758-.877,1.518v0h3.5v0l-.877-1.518Zm3.914-12.807h.877l.877-1.518-.877-1.519h-1.754l-.877,1.519.877,1.518Zm0,3.521h.877l.877-1.518-.877-1.519h-1.754l-.877,1.519.877,1.518Zm0,3.521h.877l.877-1.518-.877-1.519h-1.754l-.877,1.519.877,1.518Zm0,3.522h.877l.877-1.519-.877-1.519h-1.754l-.877,1.519.877,1.519Zm0-14.086h.877l.877-1.518-.877-1.519h-1.754l-.877,1.519.877,1.518Zm3.914-1.758.877-1.519,0,0h-3.5v0l.877,1.519Zm1.284,1.758h1.754l.877-1.518-.877-1.519h-1.754l-.877,1.519Zm4.791-1.758.877-1.519v0h-3.5v0l.877,1.519Zm1.283,1.758h1.754l.877-1.518-.877-1.519h-1.754l-.877,1.519Zm4.791-1.758.877-1.519v0h-3.5v0l.877,1.519Zm1.284,1.758h1.754l.877-1.518-.877-1.519h-1.754l-.877,1.519Zm4.791-1.758.877-1.519v0h-3.5v0l.877,1.519Zm1.284,1.758h1.754l.877-1.518-.877-1.519h-1.754l-.877,1.519Zm4.791-1.758.877-1.519v0h-3.5v0l.877,1.519Zm0,.48H170.9l-.877,1.518v0l.877,1.519h1.753l.877-1.519v0Zm1.283-1.758-.877,1.519.877,1.518h.877V119.93Zm-27.335,4.8h1.753l.877-1.519,0,0,0,0-.877-1.518H146.6l-.877,1.518v0Zm3.914-1.279h-.877l-.877,1.519.877,1.518h1.754l.877-1.518-.877-1.519Zm2.161,1.279h1.753l.877-1.519v0l-.877-1.518h-1.753l-.877,1.518v0Zm3.914-1.279h-.877l-.877,1.519.877,1.518h1.754l.877-1.518-.877-1.519Zm2.161,1.279H160.5l.877-1.519v0l-.877-1.518h-1.753l-.877,1.518v0Zm3.914-1.279h-.877l-.877,1.519.877,1.518h1.754l.877-1.518-.877-1.519Zm2.161,1.279h1.753l.877-1.519v0l-.877-1.518h-1.753l-.877,1.518v0Zm4.791-1.279h-1.754l-.877,1.519.877,1.518h1.754l.877-1.518Zm3.037,1.758H170.9l-.877,1.518v0l.877,1.519h1.753l.877-1.519v0Zm.407-.24.877,1.518h.877v-3.037h-.877ZM146.6,128.252h1.753l.877-1.519,0,0,0,0-.877-1.518H146.6l-.877,1.518v0Zm3.914-1.279h-.877l-.877,1.519.877,1.518h1.754l.877-1.518-.877-1.519Zm2.161,1.279h1.753l.877-1.519v0l-.877-1.518h-1.753l-.877,1.518v0Zm1.753.48h-1.753l-.877,1.518v0l.877,1.519h1.753l.877-1.519v0Zm2.161-1.758h-.877l-.877,1.519.877,1.518h1.754l.877-1.518-.877-1.519Zm2.161,1.279H160.5l.877-1.519v0l-.877-1.518h-1.753l-.877,1.518v0Zm1.753.48h-1.753l-.877,1.518v0l.877,1.519H160.5l.877-1.519v0Zm2.161-1.758h-.877l-.877,1.519.877,1.518h1.754l.877-1.518-.877-1.519Zm2.161,1.279h1.753l.877-1.519v0l-.877-1.518h-1.753l-.877,1.518v0Zm1.753.48h-1.753l-.877,1.518v0l.877,1.519h1.753l.877-1.519v0Zm3.038-1.758h-1.754l-.877,1.519.877,1.518h1.754l.877-1.518Zm3.037,1.758H170.9l-.877,1.518v0l.877,1.519h1.753l.877-1.519v0Zm.407-.24.877,1.518h.877v-3.037h-.877ZM146.6,131.773h1.753l.877-1.519,0,0,0,0-.877-1.518H146.6l-.877,1.518v0Zm3.037,1.758h1.754l.877-1.518-.877-1.519h-1.754l-.877,1.519Zm4.791-1.278h-1.753l-.877,1.518v0l.877,1.519h1.753l.877-1.519v0Zm2.161,1.278h.877l.877-1.518-.877-1.519h-1.754l-.877,1.519.877,1.518Zm3.914-1.278h-1.753l-.877,1.518v0l.877,1.519H160.5l.877-1.519v0Zm2.161,1.278h.877l.877-1.518-.877-1.519h-1.754l-.877,1.519.877,1.518Zm3.914-1.278h-1.753l-.877,1.518v0l.877,1.519h1.753l.877-1.519v0Zm2.161,1.278h.877l.877-1.518-.877-1.519h-1.754l-.877,1.519.877,1.518Zm3.914-1.278H170.9l-.877,1.518v0l.877,1.519h1.753l.877-1.519v0Zm.407-.24.877,1.518h.877v-3.037h-.877ZM146.6,135.294h1.753l.877-1.519,0,0,0,0-.877-1.518H146.6l-.877,1.518v0Zm1.753.48H146.6l-.877,1.518v.005l.877,1.518h1.753l.877-1.518,0,0,0,0Zm2.161,1.279h.877l.877-1.519-.877-1.519h-1.754l-.877,1.519.877,1.519Zm3.914-1.279h-1.753l-.877,1.518v.005l.877,1.518h1.753l.877-1.518v-.005Zm2.161,1.279h.877l.877-1.519-.877-1.519h-1.754l-.877,1.519.877,1.519Zm3.914-1.279h-1.753l-.877,1.518v.005l.877,1.518H160.5l.877-1.518v-.005Zm2.161,1.279h.877l.877-1.519-.877-1.519h-1.754l-.877,1.519.877,1.519Zm3.914-1.279h-1.753l-.877,1.518v.005l.877,1.518h1.753l.877-1.518v-.005Zm2.161,1.279h.877l.877-1.519-.877-1.519h-1.754l-.877,1.519.877,1.519Zm3.914-1.279H170.9l-.877,1.518v.005l.877,1.518h1.753l.877-1.518v-.005Zm.407-.24.877,1.519h.877v-3.037h-.877Zm-27.742,2h-1.754l-.877,1.519.877,1.519h1.754l.877-1.519ZM146.6,139.3l-.877,1.518v0h3.5l0,0-.877-1.518Zm4.791-1.758h-1.754l-.877,1.519.877,1.519h1.754l.877-1.519Zm1.283,1.758-.877,1.518v0h3.5v0l-.877-1.518Zm4.791-1.758h-1.754l-.877,1.519.877,1.519h1.754l.877-1.519Zm1.284,1.758-.877,1.518v0h3.5v0L160.5,139.3Zm4.791-1.758h-1.754l-.877,1.519.877,1.519h1.754l.877-1.519Zm1.284,1.758-.877,1.518v0h3.5v0l-.877-1.518Zm4.791-1.758h-1.754l-.877,1.519.877,1.519h1.754l.877-1.519ZM170.9,139.3l-.877,1.518v0h3.5v0l-.877-1.518Zm2.16-.24.877,1.519h.877v-3.037h-.877Z" transform="translate(-83.691 -119.688)" fill="#08162b"/>
                </g>
              </g>
            </g>
          </g>
        </g>
        <g id="Grupo_2534" data-name="Grupo 2534">
          <g id="Grupo_2533" data-name="Grupo 2533" clip-path="url(#clip-path)">
            <g id="Grupo_2511" data-name="Grupo 2511" transform="translate(29.158 43.162)" style="mix-blend-mode: multiply;isolation: isolate">
              <g id="Grupo_2510" data-name="Grupo 2510">
                <g id="Grupo_2509" data-name="Grupo 2509" clip-path="url(#clip-path-19)">
                  <rect id="Retângulo_9858" data-name="Retângulo 9858" width="91.116" height="18.163" rx="4.999" transform="translate(0.109 0.109)" fill="none" stroke="#08162b" stroke-width="0.625"/>
                </g>
              </g>
            </g>
            <rect id="Retângulo_9860" data-name="Retângulo 9860" width="130.771" height="4.276" transform="translate(21.385 104.387)" fill="#030912"/>
            <path id="Caminho_2181" data-name="Caminho 2181" d="M184,240.149H43.236a2.724,2.724,0,0,1-2.724-2.725v-26.79a2.724,2.724,0,0,1,2.724-2.725H184a2.725,2.725,0,0,1,2.725,2.725v26.79A2.725,2.725,0,0,1,184,240.149" transform="translate(-26.392 -135.445)" fill="#08162b"/>
            <g id="Grupo_2514" data-name="Grupo 2514" transform="translate(18.585 78.822)" style="mix-blend-mode: multiply;isolation: isolate">
              <g id="Grupo_2513" data-name="Grupo 2513">
                <g id="Grupo_2512" data-name="Grupo 2512" clip-path="url(#clip-path-2)">
                  <path id="Caminho_2182" data-name="Caminho 2182" d="M55.82,246.581h0a2.5,2.5,0,0,1-2.5-2.5V228.646a2.5,2.5,0,1,1,4.995,0v15.438a2.5,2.5,0,0,1-2.5,2.5" transform="translate(-53.323 -226.148)" fill="#08162b"/>
                </g>
              </g>
            </g>
            <path id="Caminho_2183" data-name="Caminho 2183" d="M54.518,243.976h0a2.5,2.5,0,0,1-2.5-2.5V226.041a2.5,2.5,0,1,1,4.995,0v15.438a2.5,2.5,0,0,1-2.5,2.5" transform="translate(-33.89 -145.63)" fill="#3e5570"/>
            <path id="Caminho_2184" data-name="Caminho 2184" d="M52.474,241.479V226.041a2.5,2.5,0,0,1,2.27-2.486c-.075-.007-.151-.011-.227-.011a2.5,2.5,0,0,0-2.5,2.5v15.438a2.5,2.5,0,0,0,2.5,2.5c.077,0,.152,0,.227-.012a2.5,2.5,0,0,1-2.27-2.486" transform="translate(-33.889 -145.63)" fill="#6b8199"/>
            <g id="Grupo_2517" data-name="Grupo 2517" transform="translate(150.869 78.822)" style="mix-blend-mode: multiply;isolation: isolate">
              <g id="Grupo_2516" data-name="Grupo 2516">
                <g id="Grupo_2515" data-name="Grupo 2515" clip-path="url(#clip-path-2)">
                  <path id="Caminho_2185" data-name="Caminho 2185" d="M435.359,246.581h0a2.5,2.5,0,0,0,2.5-2.5V228.646a2.5,2.5,0,1,0-4.995,0v15.438a2.5,2.5,0,0,0,2.5,2.5" transform="translate(-432.862 -226.148)" fill="#08162b"/>
                </g>
              </g>
            </g>
            <path id="Caminho_2186" data-name="Caminho 2186" d="M436.662,243.976h0a2.5,2.5,0,0,0,2.5-2.5V226.041a2.5,2.5,0,1,0-4.995,0v15.438a2.5,2.5,0,0,0,2.5,2.5" transform="translate(-282.842 -145.63)" fill="#3e5570"/>
            <path id="Caminho_2187" data-name="Caminho 2187" d="M442.948,241.479V226.041a2.5,2.5,0,0,0-2.27-2.486c.075-.007.151-.011.227-.011a2.5,2.5,0,0,1,2.5,2.5v15.438a2.5,2.5,0,0,1-2.5,2.5c-.077,0-.152,0-.227-.012a2.5,2.5,0,0,0,2.27-2.486" transform="translate(-287.085 -145.63)" fill="#6b8199"/>
            <path id="Caminho_2188" data-name="Caminho 2188" d="M409.608,248.3h4.668a.335.335,0,0,0,.291-.5l-2.334-4.117a.335.335,0,0,0-.583,0l-2.333,4.117a.335.335,0,0,0,.291.5" transform="translate(-266.625 -158.639)" fill="#6bba21"/>
            <g id="Grupo_2520" data-name="Grupo 2520" transform="translate(124.703 79.503)" style="mix-blend-mode: multiply;isolation: isolate">
              <g id="Grupo_2519" data-name="Grupo 2519">
                <g id="Grupo_2518" data-name="Grupo 2518" clip-path="url(#clip-path-4)">
                  <rect id="Retângulo_9863" data-name="Retângulo 9863" width="2.725" height="18.163" transform="translate(0 0)" fill="#08162b"/>
                </g>
              </g>
            </g>
            <g id="Grupo_2523" data-name="Grupo 2523" transform="translate(128.79 79.503)" style="mix-blend-mode: multiply;isolation: isolate">
              <g id="Grupo_2522" data-name="Grupo 2522">
                <g id="Grupo_2521" data-name="Grupo 2521" clip-path="url(#clip-path-4)">
                  <rect id="Retângulo_9865" data-name="Retângulo 9865" width="2.725" height="18.163" transform="translate(0 0)" fill="#08162b"/>
                </g>
              </g>
            </g>
            <g id="Grupo_2526" data-name="Grupo 2526" transform="translate(132.877 79.503)" style="mix-blend-mode: multiply;isolation: isolate">
              <g id="Grupo_2525" data-name="Grupo 2525">
                <g id="Grupo_2524" data-name="Grupo 2524" clip-path="url(#clip-path-4)">
                  <rect id="Retângulo_9867" data-name="Retângulo 9867" width="2.725" height="18.163" transform="translate(0 0)" fill="#08162b"/>
                </g>
              </g>
            </g>
            <g id="Grupo_2529" data-name="Grupo 2529" transform="translate(136.963 79.503)" style="mix-blend-mode: multiply;isolation: isolate">
              <g id="Grupo_2528" data-name="Grupo 2528">
                <g id="Grupo_2527" data-name="Grupo 2527" clip-path="url(#clip-path-4)">
                  <rect id="Retângulo_9869" data-name="Retângulo 9869" width="2.725" height="18.163" transform="translate(0 0)" fill="#08162b"/>
                </g>
              </g>
            </g>
            <g id="Grupo_2532" data-name="Grupo 2532" transform="translate(29.158 79.394)" style="mix-blend-mode: multiply;isolation: isolate">
              <g id="Grupo_2531" data-name="Grupo 2531">
                <g id="Grupo_2530" data-name="Grupo 2530" clip-path="url(#clip-path-19)">
                  <rect id="Retângulo_9871" data-name="Retângulo 9871" width="91.116" height="18.163" rx="4.999" transform="translate(0.109 0.109)" fill="none" stroke="#08162b" stroke-width="0.625"/>
                </g>
              </g>
            </g>
          </g>
        </g>
        <g id="Grupo_2539" data-name="Grupo 2539" transform="translate(29.267 79.503)">
          <g id="Grupo_2538" data-name="Grupo 2538" clip-path="url(#clip-path-9)">
            <g id="Grupo_2537" data-name="Grupo 2537" transform="translate(-0.097 -1.554)" style="mix-blend-mode: multiply;isolation: isolate">
              <g id="Grupo_2536" data-name="Grupo 2536">
                <g id="Grupo_2535" data-name="Grupo 2535" clip-path="url(#clip-path-10)">
                  <path id="Caminho_2189" data-name="Caminho 2189" d="M84.568,226.922h-.877v-3.037h.877l.877,1.519Zm3.037-1.758.877-1.519v0h-3.5v0l.877,1.519Zm1.283,1.758h1.754l.877-1.518-.877-1.519H88.888l-.877,1.519Zm4.791-1.758.877-1.519v0h-3.5v0l.877,1.519Zm1.284,1.758h1.754l.877-1.518-.877-1.519H94.963l-.877,1.519Zm4.791-1.758.877-1.519v0h-3.5v0L98,225.164Zm1.283,1.758h1.754l.877-1.518-.877-1.519h-1.754l-.877,1.519Zm4.791-1.758.877-1.519v0h-3.5l0,0,.877,1.519Zm1.284,1.758h1.754l.877-1.518-.877-1.519h-1.754l-.877,1.519Zm4.791-1.758.877-1.519v0h-3.5v0l.877,1.519Zm1.284,1.758h1.754l.877-1.518-.877-1.519h-1.754l-.877,1.519Zm4.791-1.758.877-1.519v0h-3.5v0l.877,1.519Zm1.284,1.758h1.754l.877-1.518-.877-1.519h-1.754l-.877,1.519Zm4.791-1.758.877-1.519v0h-3.5v0l.877,1.519Zm1.284,1.758h1.754l.877-1.518-.877-1.519h-1.754l-.877,1.519Zm4.791-1.758.877-1.519v0h-3.5v0l.877,1.519Zm1.283,1.758h1.754l.877-1.518-.877-1.519H131.41l-.877,1.519Zm4.791-1.758.877-1.519v0h-3.5v0l.877,1.519Zm1.284,1.758h1.754l.877-1.518-.877-1.519h-1.754l-.877,1.519Zm4.791-1.758.877-1.519v0h-3.5v0l.877,1.519Zm0,.48h-1.754l-.877,1.518v0l.877,1.519h1.754l.877-1.519v0Zm-56.831,3.281-.877-1.519h-.877v3.037h.877Zm.407-.24h1.754l.877-1.519v0l-.877-1.518H85.852l-.877,1.518v0Zm3.914-1.279h-.877l-.877,1.519.877,1.518h1.754l.877-1.518-.877-1.519Zm2.161,1.279h1.753l.877-1.519v0l-.877-1.518H91.926l-.877,1.518v0Zm3.914-1.279h-.877l-.877,1.519.877,1.518h1.754l.877-1.518-.877-1.519ZM98,228.685h1.754l.877-1.519v0l-.877-1.518H98l-.877,1.518v0Zm3.914-1.279h-.877l-.877,1.519.877,1.518h1.754l.877-1.518-.877-1.519Zm2.161,1.279h1.753l.877-1.519v0l-.877-1.518h-1.753l-.877,1.518,0,0,0,0Zm3.914-1.279h-.877l-.877,1.519.877,1.518h1.754l.877-1.518-.877-1.519Zm2.161,1.279H111.9l.877-1.519v0l-.877-1.518H110.15l-.877,1.518v0Zm3.914-1.279h-.877l-.877,1.519.877,1.518h1.754l.877-1.518-.877-1.519Zm2.161,1.279h1.753l.877-1.519v0l-.877-1.518h-1.753l-.877,1.518v0Zm3.914-1.279h-.877l-.877,1.519.877,1.518h1.754l.877-1.518-.877-1.519Zm2.16,1.279h1.754l.877-1.519v0l-.877-1.518H122.3l-.877,1.518v0Zm3.914-1.279h-.877l-.877,1.519.877,1.518h1.754l.877-1.518-.877-1.519Zm2.161,1.279h1.754l.877-1.519v0l-.877-1.518h-1.754l-.877,1.518v0Zm3.914-1.279h-.877l-.877,1.519.877,1.518h1.754l.877-1.518-.877-1.519Zm2.161,1.279H136.2l.877-1.519v0l-.877-1.518h-1.753l-.877,1.518v0Zm4.791-1.279h-1.754l-.877,1.519.877,1.518h1.754l.877-1.518Zm3.037,1.758h-1.754l-.877,1.518v0l.877,1.519h1.754l.877-1.519v0Zm-56.831,3.281-.877-1.519h-.877v3.037h.877Zm.407-.24h1.754l.877-1.519v0l-.877-1.518H85.852l-.877,1.518v0Zm3.914-1.279h-.877l-.877,1.519.877,1.518h1.754l.877-1.518-.877-1.519Zm2.161,1.279h1.753l.877-1.519v0l-.877-1.518H91.926l-.877,1.518v0Zm1.753.48H91.926l-.877,1.518v0l.877,1.519h1.753l.877-1.519v0Zm2.161-1.758h-.877l-.877,1.519.877,1.518h1.754l.877-1.518-.877-1.519ZM98,232.207h1.754l.877-1.519v0l-.877-1.518H98l-.877,1.518v0Zm1.754.48H98l-.877,1.518v0L98,235.728h1.754l.877-1.519v0Zm2.161-1.758h-.877l-.877,1.519.877,1.518h1.754l.877-1.518-.877-1.519Zm2.161,1.279h1.753l.877-1.519v0l-.877-1.518h-1.753l-.877,1.518,0,0,0,0Zm1.753.48h-1.753L103.2,234.2l0,0,0,0,.877,1.519h1.753l.877-1.519v0Zm2.161-1.758h-.877l-.877,1.519.877,1.518h1.754l.877-1.518-.877-1.519Zm2.161,1.279H111.9l.877-1.519v0l-.877-1.518H110.15l-.877,1.518v0Zm1.754.48H110.15l-.877,1.518v0l.877,1.519H111.9l.877-1.519v0Zm2.161-1.758h-.877l-.877,1.519.877,1.518h1.754l.877-1.518-.877-1.519Zm2.161,1.279h1.753l.877-1.519v0l-.877-1.518h-1.753l-.877,1.518v0Zm1.753.48h-1.753l-.877,1.518v0l.877,1.519h1.753l.877-1.519v0Zm2.161-1.758h-.877l-.877,1.519.877,1.518h1.754l.877-1.518-.877-1.519Zm2.16,1.279h1.754l.877-1.519v0l-.877-1.518H122.3l-.877,1.518v0Zm1.754.48H122.3l-.877,1.518v0l.877,1.519h1.754l.877-1.519v0Zm2.161-1.758h-.877l-.877,1.519.877,1.518h1.754l.877-1.518-.877-1.519Zm2.161,1.279h1.754l.877-1.519v0l-.877-1.518h-1.754l-.877,1.518v0Zm1.754.48h-1.754L127.5,234.2v0l.877,1.519h1.754l.877-1.519v0Zm2.161-1.758h-.877l-.877,1.519.877,1.518h1.754l.877-1.518-.877-1.519Zm2.161,1.279H136.2l.877-1.519v0l-.877-1.518h-1.753l-.877,1.518v0Zm1.753.48h-1.753l-.877,1.518v0l.877,1.519H136.2l.877-1.519v0Zm3.038-1.758h-1.754l-.877,1.519.877,1.518h1.754l.877-1.518Zm3.037,1.758h-1.754l-.877,1.518v0l.877,1.519h1.754l.877-1.519v0Zm-56.831,3.281-.877-1.519h-.877v3.037h.877Zm.407-.24h1.754l.877-1.519v0l-.877-1.518H85.852l-.877,1.518v0Zm3.037,1.758h1.754l.877-1.518-.877-1.519H88.888l-.877,1.519Zm4.791-1.278H91.926l-.877,1.518v0l.877,1.519h1.753l.877-1.519v0Zm2.161,1.278h.877l.877-1.518-.877-1.519H94.963l-.877,1.519.877,1.518Zm3.914-1.278H98l-.877,1.518v0L98,239.249h1.754l.877-1.519v0Zm2.161,1.278h.877l.877-1.518-.877-1.519h-1.754l-.877,1.519.877,1.518Zm3.914-1.278h-1.753l-.877,1.518,0,0,0,0,.877,1.519h1.753l.877-1.519v0Zm2.161,1.278h.877l.877-1.518-.877-1.519h-1.754l-.877,1.519.877,1.518Zm3.914-1.278H110.15l-.877,1.518v0l.877,1.519H111.9l.877-1.519v0Zm2.161,1.278h.877l.877-1.518-.877-1.519h-1.754l-.877,1.519.877,1.518Zm3.914-1.278h-1.753l-.877,1.518v0l.877,1.519h1.753l.877-1.519v0Zm2.161,1.278h.877l.877-1.518-.877-1.519h-1.754l-.877,1.519.877,1.518Zm3.914-1.278H122.3l-.877,1.518v0l.877,1.519h1.754l.877-1.519v0Zm2.161,1.278h.877l.877-1.518-.877-1.519h-1.754l-.877,1.519.877,1.518Zm3.914-1.278h-1.754l-.877,1.518v0l.877,1.519h1.754l.877-1.519v0Zm2.161,1.278h.877l.877-1.518-.877-1.519H131.41l-.877,1.519.877,1.518Zm3.914-1.278h-1.753l-.877,1.518v0l.877,1.519H136.2l.877-1.519v0Zm2.161,1.278h.877l.877-1.518-.877-1.519h-1.754l-.877,1.519.877,1.518Zm3.914-1.278h-1.754l-.877,1.518v0l.877,1.519h1.754l.877-1.519v0Zm-56.831,3.281-.877-1.519h-.877v3.037h.877Zm.407-.24h1.754l.877-1.519v0l-.877-1.518H85.852l-.877,1.518v0Zm1.754.48H85.852l-.877,1.518v.005l.877,1.518h1.754l.877-1.518v-.005Zm2.161,1.279h.877l.877-1.519-.877-1.519H88.888l-.877,1.519.877,1.519Zm3.914-1.279H91.926l-.877,1.518v.005l.877,1.518h1.753l.877-1.518v-.005Zm2.161,1.279h.877l.877-1.519-.877-1.519H94.963l-.877,1.519.877,1.519Zm3.914-1.279H98l-.877,1.518v.005L98,242.77h1.754l.877-1.518v-.005Zm2.161,1.279h.877l.877-1.519-.877-1.519h-1.754l-.877,1.519.877,1.519Zm3.914-1.279h-1.753l-.877,1.518,0,0,0,0,.877,1.518h1.753l.877-1.518v-.005Zm2.161,1.279h.877l.877-1.519-.877-1.519h-1.754l-.877,1.519.877,1.519Zm3.914-1.279H110.15l-.877,1.518v.005l.877,1.518H111.9l.877-1.518v-.005Zm2.161,1.279h.877l.877-1.519-.877-1.519h-1.754l-.877,1.519.877,1.519Zm3.914-1.279h-1.753l-.877,1.518v.005l.877,1.518h1.753l.877-1.518v-.005Zm2.161,1.279h.877l.877-1.519-.877-1.519h-1.754l-.877,1.519.877,1.519Zm3.914-1.279H122.3l-.877,1.518v.005l.877,1.518h1.754l.877-1.518v-.005Zm2.161,1.279h.877l.877-1.519-.877-1.519h-1.754l-.877,1.519.877,1.519Zm3.914-1.279h-1.754l-.877,1.518v.005l.877,1.518h1.754l.877-1.518v-.005Zm2.161,1.279h.877l.877-1.519-.877-1.519H131.41l-.877,1.519.877,1.519Zm3.914-1.279h-1.753l-.877,1.518v.005l.877,1.518H136.2l.877-1.518v-.005Zm2.161,1.279h.877l.877-1.519-.877-1.519h-1.754l-.877,1.519.877,1.519Zm3.914-1.279h-1.754l-.877,1.518v.005l.877,1.518h1.754l.877-1.518v-.005Zm-57.708,1.763h-.877v3.037h.877l.877-1.519Zm1.284,1.758-.877,1.518v0h3.5v0l-.877-1.518Zm4.791-1.758H88.888l-.877,1.519.877,1.519h1.754l.877-1.519Zm1.284,1.758-.877,1.518v0h3.5v0l-.877-1.518Zm4.791-1.758H94.963l-.877,1.519.877,1.519h1.754l.877-1.519ZM98,243.25l-.877,1.518v0h3.5v0l-.877-1.518Zm4.791-1.758h-1.754l-.877,1.519.877,1.519h1.754l.877-1.519Zm1.284,1.758-.877,1.518,0,0h3.5v0l-.877-1.518Zm4.791-1.758h-1.754l-.877,1.519.877,1.519h1.754l.877-1.519Zm1.283,1.758-.877,1.518v0h3.5v0l-.877-1.518Zm4.791-1.758h-1.754l-.877,1.519.877,1.519h1.754l.877-1.519Zm1.284,1.758-.877,1.518v0h3.5v0l-.877-1.518Zm4.791-1.758h-1.754l-.877,1.519.877,1.519h1.754l.877-1.519Zm1.283,1.758-.877,1.518v0h3.5v0l-.877-1.518Zm4.791-1.758h-1.754l-.877,1.519.877,1.519h1.754l.877-1.519Zm1.284,1.758-.877,1.518v0H131v0l-.877-1.518Zm4.791-1.758H131.41l-.877,1.519.877,1.519h1.754l.877-1.519Zm1.284,1.758-.877,1.518v0h3.5v0l-.877-1.518Zm4.791-1.758h-1.754l-.877,1.519.877,1.519h1.754l.877-1.519Zm1.283,1.758-.877,1.518v0h3.5v0l-.877-1.518Zm3.914-12.807h.877l.877-1.518-.877-1.519h-1.754l-.877,1.519.877,1.518Zm0,3.521h.877l.877-1.518-.877-1.519h-1.754l-.877,1.519.877,1.518Zm0,3.521h.877l.877-1.518-.877-1.519h-1.754l-.877,1.519.877,1.518Zm0,3.522h.877l.877-1.519-.877-1.519h-1.754l-.877,1.519.877,1.519Zm0-14.086h.877l.877-1.518-.877-1.519h-1.754l-.877,1.519.877,1.518Zm3.914-1.758.877-1.519,0,0h-3.5v0l.877,1.519Zm1.284,1.758h1.754l.877-1.518-.877-1.519h-1.754l-.877,1.519Zm4.791-1.758.877-1.519v0h-3.5v0l.877,1.519Zm1.283,1.758h1.754l.877-1.518-.877-1.519h-1.754l-.877,1.519Zm4.791-1.758.877-1.519v0h-3.5v0l.877,1.519Zm1.284,1.758h1.754l.877-1.518-.877-1.519h-1.754l-.877,1.519Zm4.791-1.758.877-1.519v0h-3.5v0l.877,1.519Zm1.284,1.758h1.754l.877-1.518-.877-1.519h-1.754l-.877,1.519Zm4.791-1.758.877-1.519v0h-3.5v0l.877,1.519Zm0,.48H170.9l-.877,1.518v0l.877,1.519h1.753l.877-1.519v0Zm1.283-1.758-.877,1.519.877,1.518h.877v-3.037Zm-27.335,4.8h1.753l.877-1.519,0,0,0,0-.877-1.518H146.6l-.877,1.518v0Zm3.914-1.279h-.877l-.877,1.519.877,1.518h1.754l.877-1.518-.877-1.519Zm2.161,1.279h1.753l.877-1.519v0l-.877-1.518h-1.753l-.877,1.518v0Zm3.914-1.279h-.877l-.877,1.519.877,1.518h1.754l.877-1.518-.877-1.519Zm2.161,1.279H160.5l.877-1.519v0l-.877-1.518h-1.753l-.877,1.518v0Zm3.914-1.279h-.877l-.877,1.519.877,1.518h1.754l.877-1.518-.877-1.519Zm2.161,1.279h1.753l.877-1.519v0l-.877-1.518h-1.753l-.877,1.518v0Zm4.791-1.279h-1.754l-.877,1.519.877,1.518h1.754l.877-1.518Zm3.037,1.758H170.9l-.877,1.518v0l.877,1.519h1.753l.877-1.519v0Zm.407-.24.877,1.518h.877v-3.037h-.877ZM146.6,232.207h1.753l.877-1.519,0,0,0,0-.877-1.518H146.6l-.877,1.518v0Zm3.914-1.279h-.877l-.877,1.519.877,1.518h1.754l.877-1.518-.877-1.519Zm2.161,1.279h1.753l.877-1.519v0l-.877-1.518h-1.753l-.877,1.518v0Zm1.753.48h-1.753l-.877,1.518v0l.877,1.519h1.753l.877-1.519v0Zm2.161-1.758h-.877l-.877,1.519.877,1.518h1.754l.877-1.518-.877-1.519Zm2.161,1.279H160.5l.877-1.519v0l-.877-1.518h-1.753l-.877,1.518v0Zm1.753.48h-1.753l-.877,1.518v0l.877,1.519H160.5l.877-1.519v0Zm2.161-1.758h-.877l-.877,1.519.877,1.518h1.754l.877-1.518-.877-1.519Zm2.161,1.279h1.753l.877-1.519v0l-.877-1.518h-1.753l-.877,1.518v0Zm1.753.48h-1.753l-.877,1.518v0l.877,1.519h1.753l.877-1.519v0Zm3.038-1.758h-1.754l-.877,1.519.877,1.518h1.754l.877-1.518Zm3.037,1.758H170.9l-.877,1.518v0l.877,1.519h1.753l.877-1.519v0Zm.407-.24.877,1.518h.877v-3.037h-.877ZM146.6,235.728h1.753l.877-1.519,0,0,0,0-.877-1.518H146.6l-.877,1.518v0Zm3.037,1.758h1.754l.877-1.518-.877-1.519h-1.754l-.877,1.519Zm4.791-1.278h-1.753l-.877,1.518v0l.877,1.519h1.753l.877-1.519v0Zm2.161,1.278h.877l.877-1.518-.877-1.519h-1.754l-.877,1.519.877,1.518Zm3.914-1.278h-1.753l-.877,1.518v0l.877,1.519H160.5l.877-1.519v0Zm2.161,1.278h.877l.877-1.518-.877-1.519h-1.754l-.877,1.519.877,1.518Zm3.914-1.278h-1.753l-.877,1.518v0l.877,1.519h1.753l.877-1.519v0Zm2.161,1.278h.877l.877-1.518-.877-1.519h-1.754l-.877,1.519.877,1.518Zm3.914-1.278H170.9l-.877,1.518v0l.877,1.519h1.753l.877-1.519v0Zm.407-.24.877,1.518h.877v-3.037h-.877ZM146.6,239.249h1.753l.877-1.519,0,0,0,0-.877-1.518H146.6l-.877,1.518v0Zm1.753.48H146.6l-.877,1.518v.005l.877,1.518h1.753l.877-1.518,0,0,0,0Zm2.161,1.279h.877l.877-1.519-.877-1.519h-1.754l-.877,1.519.877,1.519Zm3.914-1.279h-1.753l-.877,1.518v.005l.877,1.518h1.753l.877-1.518v-.005Zm2.161,1.279h.877l.877-1.519-.877-1.519h-1.754l-.877,1.519.877,1.519Zm3.914-1.279h-1.753l-.877,1.518v.005l.877,1.518H160.5l.877-1.518v-.005Zm2.161,1.279h.877l.877-1.519-.877-1.519h-1.754l-.877,1.519.877,1.519Zm3.914-1.279h-1.753l-.877,1.518v.005l.877,1.518h1.753l.877-1.518v-.005Zm2.161,1.279h.877l.877-1.519-.877-1.519h-1.754l-.877,1.519.877,1.519Zm3.914-1.279H170.9l-.877,1.518v.005l.877,1.518h1.753l.877-1.518v-.005Zm.407-.24.877,1.519h.877V237.97h-.877Zm-27.742,2h-1.754l-.877,1.519.877,1.519h1.754l.877-1.519Zm1.284,1.758-.877,1.518v0h3.5l0,0-.877-1.518Zm4.791-1.758h-1.754l-.877,1.519.877,1.519h1.754l.877-1.519Zm1.283,1.758-.877,1.518v0h3.5v0l-.877-1.518Zm4.791-1.758h-1.754l-.877,1.519.877,1.519h1.754l.877-1.519Zm1.284,1.758-.877,1.518v0h3.5v0l-.877-1.518Zm4.791-1.758h-1.754l-.877,1.519.877,1.519h1.754l.877-1.519Zm1.284,1.758-.877,1.518v0h3.5v0l-.877-1.518Zm4.791-1.758h-1.754l-.877,1.519.877,1.519h1.754l.877-1.519Zm1.284,1.758-.877,1.518v0h3.5v0l-.877-1.518Zm2.16-.24.877,1.519h.877v-3.037h-.877Z" transform="translate(-83.691 -223.643)" fill="#08162b"/>
                </g>
              </g>
            </g>
          </g>
        </g>
        <g id="Grupo_2544" data-name="Grupo 2544">
          <g id="Grupo_2543" data-name="Grupo 2543" clip-path="url(#clip-path)">
            <g id="Grupo_2542" data-name="Grupo 2542" transform="translate(29.158 79.394)" style="mix-blend-mode: multiply;isolation: isolate">
              <g id="Grupo_2541" data-name="Grupo 2541">
                <g id="Grupo_2540" data-name="Grupo 2540" clip-path="url(#clip-path-19)">
                  <rect id="Retângulo_9876" data-name="Retângulo 9876" width="91.116" height="18.163" rx="4.999" transform="translate(0.109 0.109)" fill="none" stroke="#08162b" stroke-width="0.625"/>
                </g>
              </g>
            </g>
          </g>
        </g>
      </g>
    </g>
  </g>
</svg>
