<svg xmlns="http://www.w3.org/2000/svg" xmlns:xlink="http://www.w3.org/1999/xlink" width="160" height="42.595" viewBox="0 0 160 42.595">
  <defs>
    <clipPath id="clip-path">
      <rect id="Retângulo_29" data-name="Retângulo 29" width="160" height="42.595" fill="none"/>
    </clipPath>
  </defs>
  <g id="logo_winov_header" clip-path="url(#clip-path)">
    <path id="Caminho_97" data-name="Caminho 97" d="M82.2,11.123H93.045a.777.777,0,0,0,.676-1.162L88.3.395a.78.78,0,0,0-1.356,0L81.522,9.961a.779.779,0,0,0,.678,1.162" transform="translate(66.175 0.001)" fill="#6bba06"/>
    <path id="Caminho_98" data-name="Caminho 98" d="M33.9,34.01H25.7a.787.787,0,0,1-.787-.787V10.52a.787.787,0,0,1,.787-.787h8.2a.786.786,0,0,1,.787.787v22.7a.786.786,0,0,1-.787.787" transform="translate(20.247 7.911)" fill="#08162b"/>
    <path id="Caminho_99" data-name="Caminho 99" d="M50.03,9.352a8.746,8.746,0,0,0-7.572,4.4L41.9,10.688a.789.789,0,0,0-.776-.645H34.141a.786.786,0,0,0-.787.787v22.7a.786.786,0,0,0,.787.787h8.371a.788.788,0,0,0,.789-.787V21.844a3.609,3.609,0,0,1,3.343-3.638,1.953,1.953,0,0,1,2.032,2.121V33.48a.788.788,0,0,0,.787.789h8.212a.789.789,0,0,0,.789-.789v-16c0-5.543-4.541-8.128-8.433-8.128" transform="translate(27.109 7.602)" fill="#08162b"/>
    <path id="Caminho_100" data-name="Caminho 100" d="M49.159,22.172c0-7.354,5.563-12.82,13.306-12.82s13.3,5.465,13.3,12.82-5.563,12.82-13.3,12.82-13.306-5.465-13.306-12.82m9.193,0c0,2.9,1.887,4.693,4.113,4.693s4.111-1.791,4.111-4.693-1.887-4.693-4.111-4.693-4.113,1.791-4.113,4.693" transform="translate(39.955 7.602)" fill="#08162b"/>
    <path id="Caminho_101" data-name="Caminho 101" d="M63.67,10.842l13,22.8a.788.788,0,0,0,1.369,0l12.992-22.8a.788.788,0,0,0-.687-1.176l-9.135.022a.782.782,0,0,0-.682.4l-3.2,5.616-3.2-5.616a.784.784,0,0,0-.682-.4l-9.086-.022a.786.786,0,0,0-.683,1.176" transform="translate(51.664 7.857)" fill="#08162b"/>
    <path id="Caminho_102" data-name="Caminho 102" d="M31.428,10.076l-3.2,5.616-3.2-5.616a.784.784,0,0,0-.683-.4H17.66a.789.789,0,0,0-.685.4l-3.18,5.58-3.18-5.58a.784.784,0,0,0-.683-.4H.788A.787.787,0,0,0,.1,10.855l13,22.819a.787.787,0,0,0,1.369,0L21,22.2l6.542,11.48a.787.787,0,0,0,1.369,0L41.918,10.855a.787.787,0,0,0-.683-1.176H32.111a.784.784,0,0,0-.683.4" transform="translate(0 7.867)" fill="#08162b"/>
  </g>
</svg>
