<svg xmlns="http://www.w3.org/2000/svg" width="75" height="34.792" viewBox="0 0 75 34.792">
  <g id="Simbolo_Winov" transform="translate(-872.221 -493.513)">
    <path id="Caminho_501" data-name="Caminho 501" d="M1026.474,510.475h15.467a1.11,1.11,0,0,0,.966-1.658l-7.734-13.641a1.11,1.11,0,0,0-1.932,0l-7.733,13.641A1.11,1.11,0,0,0,1026.474,510.475Z" transform="translate(-95.833 -0.688)" fill="#6bba06"/>
    <path id="Caminho_502" data-name="Caminho 502" d="M917.042,494.08l-4.564,8.008-4.564-8.008a1.123,1.123,0,0,0-.976-.567h-9.532a1.123,1.123,0,0,0-.975.567l-4.535,7.956-4.535-7.956a1.122,1.122,0,0,0-.975-.567h-13.04a1.123,1.123,0,0,0-.976,1.679l18.549,32.544a1.122,1.122,0,0,0,1.951,0l9.3-16.37,9.332,16.374a1.122,1.122,0,0,0,1.951,0L932,495.192a1.123,1.123,0,0,0-.976-1.679h-13.01A1.123,1.123,0,0,0,917.042,494.08Z" transform="translate(0)" fill="#fff"/>
  </g>
</svg>
